<svg width="202" height="193" viewBox="0 0 202 193" fill="none" xmlns="http://www.w3.org/2000/svg">
<g opacity="0.15">
<path d="M123.292 94.5484C123.111 93.9763 123.3 93.327 123.805 92.9319L180.087 48.717C180.904 48.0659 182.121 48.4292 182.437 49.4305L215.567 154.452C215.747 155.024 215.559 155.673 215.09 156.057L156.572 204.162M180.708 48.4423C181.017 48.4235 181.177 48.8056 180.889 49.0145L125.391 91.7238C123.816 92.9676 121.951 93.7918 119.953 94.0682L17.6138 108.149C17.4349 108.205 16.7133 108.787 16.704 108.633C16.6814 108.561 16.7306 108.467 16.8267 108.397L84.8376 58.084C85.3179 57.7359 85.8432 57.5309 86.4138 57.4688L180.672 48.4536L180.708 48.4423ZM51.4365 214.367L155.542 204.762C156.493 204.659 157.113 203.755 156.82 202.826L123.359 94.763C123.145 94.0836 122.452 93.6337 121.739 93.741L17.4349 108.205C16.531 108.333 15.9222 109.272 16.24 110.155L49.8627 213.37C50.0771 214.049 50.7227 214.474 51.412 214.414L51.4478 214.403L51.4365 214.367Z" fill="#141414"/>
<path d="M123.292 94.5484C123.111 93.9763 123.3 93.327 123.805 92.9319L180.087 48.717C180.904 48.0659 182.121 48.4292 182.437 49.4305L215.567 154.452C215.747 155.024 215.559 155.673 215.09 156.057L156.572 204.162M180.708 48.4423C181.017 48.4235 181.177 48.8056 180.889 49.0145L125.391 91.7238C123.816 92.9676 121.951 93.7918 119.953 94.0682L17.6138 108.149C17.4349 108.205 16.7133 108.787 16.704 108.633C16.6814 108.561 16.7306 108.467 16.8267 108.397L84.8376 58.084C85.3179 57.7359 85.8432 57.5309 86.4138 57.4688L180.672 48.4536L180.708 48.4423ZM51.4365 214.367L155.542 204.762C156.493 204.659 157.113 203.755 156.82 202.826L123.359 94.763C123.145 94.0836 122.452 93.6338 121.739 93.741L17.4349 108.205C16.531 108.333 15.9222 109.272 16.24 110.155L49.8627 213.37C50.0771 214.049 50.7227 214.474 51.412 214.414L51.4478 214.403L51.4365 214.367Z" stroke="white" stroke-width="5" stroke-miterlimit="10"/>
<path d="M197.771 93.3075C215.665 69.4593 201.854 46.884 180.593 32.2424C175.998 29.5244 186.304 43.6117 186.872 45.1625C194.063 55.9863 196.439 72.4968 185.374 80.8234C180.768 84.5567 173.26 85.8244 170.604 91.4983C168.408 95.8868 170.043 101.819 174.237 104.388C181.979 109.101 192.437 100.219 197.432 93.729L197.771 93.3075Z" fill="white"/>
<path d="M50.882 81.6547C47.009 69.6269 49.9753 57.3286 55.3882 47.7971C57.695 43.8847 61.6183 38.3616 62.1244 39.3421C62.271 39.8069 62.2069 40.1024 62.1256 40.7178C59.3222 51.0381 54.5686 63.7822 62.631 72.8765" fill="white"/>
<path d="M90.5355 185.281C90.5355 185.281 87.1772 183.116 81.3865 183.842C75.5957 184.568 72.5701 183.832 72.5701 183.832C71.9676 183.668 68.4355 182.698 66.8454 180.526C64.8827 177.922 65.8119 176.252 65.8119 176.252C66.6092 174.664 69.0327 174.489 71.4675 174.35C73.9024 174.211 79.1665 175.932 82.8176 176.156C86.4687 176.38 90.8602 176.332 94.8041 174.616C98.7481 172.9 100.609 171.566 104.205 170.117C107.811 168.704 108.865 170.298 108.865 170.298C110.228 171.874 109.765 174.772 109.197 176.091C108.63 177.41 106.81 179.124 105.601 179.781C104.391 180.438 102.63 181.465 101.089 182.816C99.584 184.156 99.4021 186.572 99.9992 189.962C100.687 193.637 100.128 196.605 98.0371 197.461C95.8185 198.161 93.8099 196.908 93.1972 190.849C92.7568 186.585 90.4997 185.292 90.4997 185.292L90.5355 185.281ZM129.706 144.694C126.786 140.426 122.057 138.655 120.746 138.242C120.522 138.156 120.31 138.105 120.074 137.982C118.613 137.342 112.361 135.108 105.857 138.811C98.4656 143.069 97.422 147.369 97.422 147.369C95.431 152.283 97.4774 160.641 100.742 162.756C104.006 164.872 106.875 162.866 108.627 160.937C110.379 159.009 109.886 157.945 111.781 156.718C113.676 155.491 116.048 157.024 117.906 158.049C119.764 159.075 122.225 159.518 122.225 159.518C127.652 160.008 131.121 158.284 132.079 155.583C133.001 152.894 133.114 149.635 129.695 144.659L129.706 144.694ZM73.6443 155.932C71.9445 151.042 68.5465 149.126 65.1276 147.767C61.7086 146.408 56.0749 145.512 49.6825 148.197C43.2901 150.882 41.8393 156.136 41.326 158.5C40.8484 160.852 41.3588 168.083 45.9563 169.935C50.5538 171.787 53.9466 168.948 54.868 167.753C54.868 167.753 57.531 163.099 62.5537 165.8C67.6121 168.49 71.9998 164.314 71.9998 164.314C71.9998 164.314 75.2837 160.88 73.5727 155.954L73.6443 155.932Z" fill="white"/>
</g>
</svg>
