<svg xmlns="http://www.w3.org/2000/svg" width="239" height="230" fill="none" viewBox="0 0 239 230" class="w-[120px] md:w-[180px] h-auto"><path stroke="#c8ff00" stroke-miterlimit="10" stroke-width="4" d="M132.276 87.401c0-.732.457-1.418 1.19-1.692l81.707-30.784a1.815 1.815 0 0 1 2.472 1.692V190.96a1.84 1.84 0 0 1-1.145 1.692l-85.735 34.489m85.231-172.308c.367.092.412.595 0 .732l-80.241 29.32c-2.289.87-4.761 1.144-7.187.732L4.337 64.44c-.229 0-1.282.412-1.236.229 0-.092.092-.183.229-.229l97.591-33.574a3.96 3.96 0 0 1 2.059-.137l112.971 24.105zM4.703 200.428l124.643 27.033c1.144.229 2.197-.594 2.197-1.783l.733-138.002c0-.87-.641-1.647-1.511-1.784L4.108 64.439c-1.098-.183-2.151.686-2.106 1.83L3.238 198.69c0 .869.595 1.601 1.42 1.784h.045z"></path><path fill="#c8ff00" d="M219.382 113.291c29.57-21.178 21.788-52.511 2.426-77.349-4.349-4.848 2.472 15.324 2.563 17.336 4.395 15.232 1.099 35.313-14.83 40.939-6.729 2.653-15.93 1.372-21.102 6.998-4.166 4.3-4.441 11.802-.504 16.33 7.278 8.325 22.704 1.83 30.898-3.888zM52.768 45.82c-.091-15.415 7.873-28.634 17.67-37.737 4.119-3.705 10.71-8.69 10.94-7.364 0 .594-.184.915-.504 1.6-7.05 10.979-17.257 24.06-11.215 37.6M60.872 180.937s-3.112-3.751-10.116-5.031c-7.003-1.281-10.253-3.248-10.253-3.248-.641-.412-4.395-2.836-5.447-5.946-1.328-3.751.366-5.352.366-5.352 1.51-1.555 4.394-.869 7.278-.137s8.377 4.665 12.542 6.266 9.292 3.156 14.51 2.608c5.219-.549 7.874-1.418 12.589-1.784 4.714-.321 5.355 1.921 5.355 1.921 1.007 2.333-.595 5.534-1.74 6.861-1.144 1.326-3.89 2.653-5.538 2.973s-4.074.869-6.363 1.876c-2.243 1.006-3.341 3.75-3.89 7.913-.55 4.528-2.29 7.776-5.036 8.005-2.838 0-4.714-2.196-3.204-9.469 1.053-5.123-1.098-7.456-1.098-7.456zm60.468-32.842c-1.831-6.038-6.683-9.835-8.056-10.795-.229-.183-.458-.32-.687-.549-1.465-1.281-7.919-6.175-16.845-4.254-10.162 2.241-12.954 6.861-12.954 6.861-4.12 4.986-4.806 15.461-1.785 19.12s7.095 2.379 9.841.778c2.747-1.601 2.564-3.019 5.219-3.751s4.852 1.921 6.637 3.797c1.785 1.875 4.486 3.293 4.486 3.293 6.134 2.561 10.803 1.83 12.908-.961 2.06-2.79 3.387-6.541 1.236-13.585zm-69.348-7.502c-.183-6.312-3.433-9.788-6.912-12.624s-9.704-5.947-18.126-5.169c-8.423.777-12.039 6.358-13.504 8.919-1.419 2.562-3.479 11.161 1.19 15.004s9.659 1.784 11.17.732c0 0 4.806-4.437 9.658.548 4.897 4.986 11.535 1.739 11.535 1.739s5.08-2.791 4.898-9.149z"></path></svg>