<svg class="w-[clamp(96px,20vw,210px)]" width="227" height="33" viewBox="0 0 227 33" fill="none" xmlns="http://www.w3.org/2000/svg"><path d="M17.1908 33H11.9604V19.3937H5.23039V33H0V7.57959H5.23039V14.1633H11.9604V7.57959H17.1908V33Z" fill="white"></path><path d="M31.3355 7.57959C33.0911 7.57959 34.737 7.90878 36.2732 8.56715C37.8094 9.22552 39.1506 10.1277 40.2966 11.2738C41.467 12.3954 42.3814 13.7244 43.0398 15.2606C43.7226 16.7968 44.0639 18.4427 44.0639 20.1984C44.0639 21.954 43.7348 23.6121 43.0764 25.1727C42.4424 26.7089 41.5524 28.0622 40.4063 29.2327C39.2603 30.3787 37.9192 31.2931 36.383 31.9759C34.8712 32.6342 33.2374 32.9756 31.4818 33C29.7261 33 28.068 32.6708 26.5074 32.0124C24.9468 31.3541 23.5813 30.4519 22.4109 29.3058C21.2648 28.1598 20.3504 26.8186 19.6677 25.2824C19.0093 23.7462 18.6801 22.1003 18.6801 20.3447C18.6801 18.589 18.9971 16.9431 19.6311 15.4069C20.2895 13.8707 21.1917 12.5296 22.3377 11.3835C23.4838 10.2131 24.8249 9.28648 26.3611 8.60372C27.9217 7.92097 29.5798 7.57959 31.3355 7.57959ZM36.6756 25.6116C37.3827 24.9045 37.9192 24.0998 38.2849 23.1976C38.6507 22.2954 38.8336 21.3322 38.8336 20.3081C38.8336 19.284 38.6507 18.3208 38.2849 17.4186C37.9192 16.492 37.3583 15.6751 36.6024 14.968C35.1638 13.5781 33.4081 12.8831 31.3355 12.8831C29.2384 12.8831 27.4828 13.6147 26.0685 15.0777C24.6298 16.5164 23.9105 18.272 23.9105 20.3447C23.9105 21.3688 24.1056 22.332 24.4957 23.2342C24.8859 24.1364 25.4345 24.9411 26.1416 25.6482C26.8488 26.3553 27.6413 26.8918 28.5191 27.2576C29.4213 27.6233 30.3723 27.8062 31.372 27.8062C32.4449 27.7818 33.4325 27.5867 34.3347 27.221C35.2369 26.8552 36.0172 26.3188 36.6756 25.6116Z" fill="white"></path><path d="M51.0628 26.4529V33H45.8325V7.57959H55.3788C56.8906 7.57959 58.2196 7.81124 59.3656 8.27454C60.5117 8.71345 61.4627 9.34744 62.2186 10.1765C62.9989 11.0056 63.5719 11.9931 63.9376 13.1392C64.3278 14.2608 64.5229 15.5044 64.5229 16.8699C64.5229 18.2354 64.34 19.5034 63.9742 20.6738C63.6328 21.8199 63.0842 22.8318 62.3283 23.7097C61.8162 24.2949 61.2066 24.8069 60.4995 25.2459L64.596 29.3058V33H60.9018L54.3547 26.4529H51.0628ZM51.0628 21.2225H55.452C55.9153 21.2225 56.3664 21.125 56.8053 20.9299C57.2686 20.7104 57.6709 20.4056 58.0123 20.0155C58.3781 19.6253 58.6707 19.1742 58.8901 18.6622C59.134 18.1257 59.2559 17.5405 59.2559 16.9065C59.2559 16.1994 59.1096 15.5898 58.817 15.0777C58.5244 14.5412 58.1708 14.1145 57.7563 13.7975C57.3661 13.4562 56.9516 13.2123 56.5127 13.066C56.0982 12.8953 55.769 12.81 55.5251 12.81H51.0628V21.2225Z" fill="white"></path><path d="M91.2112 33H85.9808L71.0943 15.5898V33H65.8639V7.57959H71.0943L85.9808 24.9898V7.57959H91.2112V33Z" fill="white"></path><path d="M104.831 33H99.6008V26.1968C98.6011 25.9774 97.6866 25.6482 96.8576 25.2093C96.0285 24.746 95.3092 24.1486 94.6996 23.4171C94.09 22.6855 93.6145 21.8199 93.2731 20.8202C92.9561 19.796 92.7976 18.6256 92.7976 17.3088V7.57959H98.028V17.382C98.028 17.8453 98.1256 18.3086 98.3206 18.7719C98.5401 19.2108 98.8449 19.6131 99.235 19.9789C99.6252 20.3447 100.076 20.6373 100.588 20.8567C101.125 21.0762 101.71 21.1859 102.344 21.1859C103.051 21.1859 103.661 21.0396 104.173 20.747C104.709 20.4544 105.136 20.113 105.453 19.7229C105.794 19.3083 106.038 18.8938 106.185 18.4793C106.355 18.0647 106.441 17.7234 106.441 17.4551V7.57959H111.671V17.3088C111.671 19.8692 111.037 21.9052 109.769 23.4171C108.525 24.9045 106.879 25.8433 104.831 26.2334V33Z" fill="white"></path><path d="M170.991 16.1248C171.747 16.9782 172.295 17.9901 172.637 19.1606C173.003 20.331 173.185 21.5868 173.185 22.9279C173.185 24.2934 172.99 25.5492 172.6 26.6953C172.234 27.8169 171.661 28.7923 170.881 29.6214C170.125 30.4504 169.174 31.0966 168.028 31.5599C166.882 31.9988 165.553 32.2183 164.041 32.2183H154.385V6.79785H163.054C164.029 6.79785 164.944 6.96854 165.797 7.30992C166.65 7.62691 167.394 8.09021 168.028 8.69981C168.687 9.28503 169.186 9.99217 169.528 10.8212C169.894 11.6259 170.076 12.5159 170.076 13.4913C170.076 14.0765 169.979 14.5886 169.784 15.0275C170.247 15.3445 170.649 15.7102 170.991 16.1248ZM159.616 26.9879H164.188C164.431 26.9879 164.761 26.9147 165.175 26.7684C165.614 26.5977 166.029 26.3539 166.419 26.0369C166.833 25.6955 167.187 25.2688 167.48 24.7567C167.772 24.2203 167.918 23.5985 167.918 22.8914C167.918 22.2574 167.797 21.6843 167.553 21.1723C167.333 20.6358 167.041 20.1725 166.675 19.7824C166.333 19.3922 165.931 19.0996 165.468 18.9046C165.029 18.6851 164.578 18.5754 164.115 18.5754H159.616V26.9879ZM163.968 13.3816C164.261 13.3816 164.541 13.3816 164.809 13.3816C164.785 13.2109 164.724 13.0524 164.627 12.9061C164.48 12.711 164.297 12.5525 164.078 12.4306C163.883 12.3087 163.676 12.2233 163.456 12.1745C163.237 12.1014 163.066 12.0648 162.944 12.0648H159.616V13.3816H163.968Z" fill="white"></path><path d="M187.115 6.79785C188.871 6.79785 190.517 7.12704 192.053 7.78541C193.589 8.44378 194.931 9.34599 196.077 10.492C197.247 11.6137 198.161 12.9426 198.82 14.4788C199.503 16.015 199.844 17.661 199.844 19.4166C199.844 21.1723 199.515 22.8304 198.856 24.391C198.222 25.9272 197.332 27.2805 196.186 28.4509C195.04 29.597 193.699 30.5114 192.163 31.1941C190.651 31.8525 189.017 32.1939 187.262 32.2183C185.506 32.2183 183.848 31.8891 182.287 31.2307C180.727 30.5723 179.361 29.6701 178.191 28.5241C177.045 27.378 176.13 26.0369 175.448 24.5007C174.789 22.9645 174.46 21.3186 174.46 19.5629C174.46 17.8073 174.777 16.1613 175.411 14.6251C176.069 13.0889 176.972 11.7478 178.118 10.6018C179.264 9.43133 180.605 8.50474 182.141 7.82198C183.702 7.13923 185.36 6.79785 187.115 6.79785ZM192.456 24.8299C193.163 24.1227 193.699 23.3181 194.065 22.4159C194.431 21.5136 194.614 20.5505 194.614 19.5263C194.614 18.5022 194.431 17.539 194.065 16.6368C193.699 15.7102 193.138 14.8934 192.382 14.1862C190.944 12.7963 189.188 12.1014 187.115 12.1014C185.018 12.1014 183.263 12.8329 181.849 14.296C180.41 15.7346 179.691 17.4903 179.691 19.5629C179.691 20.5871 179.886 21.5502 180.276 22.4524C180.666 23.3546 181.215 24.1593 181.922 24.8665C182.629 25.5736 183.421 26.1101 184.299 26.4758C185.201 26.8416 186.152 27.0245 187.152 27.0245C188.225 27.0001 189.212 26.805 190.115 26.4392C191.017 26.0735 191.797 25.537 192.456 24.8299Z" fill="white"></path><path d="M222.445 6.79785H226.139V10.492L217.105 19.5263L226.139 28.5241V32.2183H222.445L213.411 23.2205L204.413 32.2183H200.719V28.5241L209.716 19.5263L200.719 10.492V6.79785H204.413L213.411 15.8322L222.445 6.79785Z" fill="white"></path><path d="M135.34 12.3341C135.34 12.2303 135.405 12.1329 135.509 12.0939L147.097 7.72475C147.266 7.65983 147.448 7.78318 147.448 7.96496V27.0322C147.448 27.1361 147.383 27.2335 147.285 27.2725L135.126 32.1675M147.214 7.71177C147.266 7.72475 147.272 7.79617 147.214 7.81564L135.833 11.9771C135.509 12.1004 135.158 12.1394 134.814 12.0809L117.195 9.07511C117.162 9.07511 117.013 9.13354 117.019 9.10757C117.019 9.09459 117.032 9.0816 117.052 9.07511L130.893 4.30991C130.99 4.27745 131.088 4.27096 131.185 4.29044L147.208 7.71177H147.214ZM117.247 28.3761L134.924 32.2129C135.087 32.2454 135.236 32.1285 135.236 31.9597L135.34 12.3731C135.34 12.2497 135.249 12.1394 135.126 12.1199L117.162 9.07511C117.006 9.04914 116.857 9.17249 116.863 9.33479L117.039 28.1294C117.039 28.2528 117.123 28.3566 117.24 28.3826H117.247V28.3761Z" stroke="white" stroke-miterlimit="10"></path><path d="M147.695 16.0082C151.889 13.0023 150.785 8.55523 148.039 5.03002C147.422 4.34186 148.389 7.20487 148.402 7.49052C149.026 9.65239 148.558 12.5024 146.299 13.3009C145.345 13.6775 144.04 13.4957 143.306 14.2942C142.715 14.9045 142.676 15.9692 143.235 16.6119C144.267 17.7935 146.455 16.8716 147.617 16.0601L147.695 16.0082Z" fill="white"></path><path d="M124.063 6.43226C124.05 4.24443 125.18 2.36821 126.569 1.07629C127.153 0.550427 128.088 -0.157211 128.121 0.0310594C128.121 0.115457 128.095 0.160901 128.049 0.258283C127.049 1.81639 125.602 3.67312 126.459 5.59478" fill="white"></path><path d="M125.212 25.6097C125.212 25.6097 124.771 25.0773 123.778 24.8955C122.784 24.7137 122.323 24.4346 122.323 24.4346C122.233 24.3762 121.7 24.0321 121.551 23.5906C121.363 23.0583 121.603 22.831 121.603 22.831C121.817 22.6103 122.226 22.7077 122.635 22.8116C123.044 22.9154 123.823 23.4738 124.414 23.701C125.005 23.9282 125.732 24.1489 126.472 24.071C127.212 23.9931 127.589 23.8698 128.257 23.8178C128.926 23.7724 129.017 24.0905 129.017 24.0905C129.16 24.4216 128.932 24.876 128.77 25.0643C128.608 25.2526 128.218 25.4409 127.985 25.4863C127.751 25.5317 127.407 25.6097 127.082 25.7525C126.764 25.8953 126.608 26.2848 126.53 26.8756C126.452 27.5183 126.206 27.9793 125.816 28.0117C125.414 28.0117 125.148 27.7001 125.362 26.6679C125.511 25.9408 125.206 25.6097 125.206 25.6097H125.212ZM133.788 20.9483C133.529 20.0914 132.841 19.5525 132.646 19.4162C132.613 19.3902 132.581 19.3708 132.549 19.3383C132.341 19.1565 131.425 18.4619 130.159 18.7345C128.718 19.0526 128.322 19.7083 128.322 19.7083C127.738 20.416 127.64 21.9027 128.069 22.422C128.497 22.9414 129.075 22.7596 129.465 22.5324C129.854 22.3052 129.828 22.1039 130.205 22.0001C130.581 21.8962 130.893 22.2727 131.146 22.5389C131.399 22.8051 131.782 23.0063 131.782 23.0063C132.652 23.3699 133.315 23.266 133.613 22.87C133.905 22.474 134.094 21.9416 133.788 20.9418V20.9483ZM123.953 19.8836C123.927 18.9877 123.466 18.4943 122.973 18.0918C122.479 17.6893 121.596 17.2478 120.402 17.3582C119.207 17.4686 118.694 18.2606 118.487 18.6242C118.285 18.9877 117.993 20.2082 118.655 20.7536C119.318 21.2989 120.025 21.0068 120.239 20.8574C120.239 20.8574 120.921 20.2277 121.609 20.9353C122.304 21.643 123.245 21.182 123.245 21.182C123.245 21.182 123.966 20.786 123.94 19.8836H123.953Z" fill="white"></path></svg>