<svg xmlns="http://www.w3.org/2000/svg" width="40" height="16" fill="none" data-sentry-element="BookIcon" data-sentry-source-file="index.tsx"><path fill="url(#book_svg__a)" d="m31.574.987 3.37 11.492c-.036.053-.07.034-.116.032-1.281-.046-2.653-.276-3.945-.371a64 64 0 0 0-2.834-.126c-2.932-.086-5.824-.321-7.974 2.041-.037.041-.037.091-.119.071-.064-.864-.022-1.732-.04-2.6-.045-2.141-.092-4.28-.127-6.426-.011-.69-.108-1.505-.072-2.19.05-.94 1.806-1.845 2.606-2.036 2.21-.529 5.762-.057 8.094.066.384.02.779-.049 1.156.048"></path><path fill="#3B3C3D" d="M39.894 15.21c-.074.088-.422.305-.533.334-12.677.027-25.343-.2-38.026-.232-.29-.02-1.187-.178-1.308-.468-.128-.304.242-1.165.357-1.5 1.039-3.02 2.22-5.996 3.299-9.003.168-.468.306-1.066.486-1.5.05-.118.123-.247.236-.315.192-.116.193.01.326.047.906.256 1.985-1.102 2.78-1.421 2.69-.093 5.512-.58 8.2-.428 1.187.068 2.635.576 3.508 1.395.071.066.396.531.484.467.47-.984 1.74-1.688 2.782-1.89 2.617-.506 5.723.1 8.398.07.198-.001.4-.012.591.047.252.078.902.736 1.17.945.399.312 1.576 1.171 2.045 1.17.184 0 .377-.129.551.037 1.623 3.913 3.058 7.904 4.734 11.794.047.177.039.311-.08.452M31.574.989C31.196.89 30.802.96 30.417.939 28.085.816 24.533.345 22.323.874c-.8.191-2.556 1.095-2.605 2.035-.036.686.06 1.501.071 2.19.035 2.146.082 4.285.127 6.426.019.869-.024 1.737.041 2.601.081.02.081-.03.119-.071 2.15-2.363 5.041-2.127 7.974-2.04.948.027 1.886.055 2.834.124 1.291.095 2.663.325 3.944.372.047.001.08.02.116-.033zM19.703 14.38c-.008-1.43.012-2.862.002-4.292-.012-1.723-.056-3.473-.088-5.196-.011-.584.07-1.353.003-1.905-.111-.91-2.12-1.784-2.916-1.946-2.028-.412-5.41-.05-7.547.109-.535.04-1.086.094-1.61.164l-3.254 11.42c.047.065.294.043.383.04 2.632-.113 5.268-.469 7.903-.551 1.89-.06 3.56.114 5.294.882.73.323 1.294.68 1.83 1.275"></path><path fill="url(#book_svg__b)" d="M19.703 14.38c-.538-.595-1.102-.952-1.831-1.275-1.734-.768-3.404-.942-5.293-.883-2.636.083-5.272.439-7.904.551-.089.004-.336.026-.383-.039l3.254-11.42a28 28 0 0 1 1.61-.164c2.138-.16 5.519-.521 7.547-.109.796.162 2.806 1.037 2.916 1.946.067.552-.014 1.32-.003 1.905.032 1.723.076 3.474.088 5.196.01 1.43-.01 2.862-.002 4.292"></path><defs><linearGradient id="book_svg__a" x1="27.327" x2="42.128" y1="0.628" y2="13.062" gradientUnits="userSpaceOnUse"><stop stop-color="#fff"></stop><stop offset="1" stop-color="#999"></stop></linearGradient><linearGradient id="book_svg__b" x1="11.999" x2="26.854" y1="0.851" y2="13.452" gradientUnits="userSpaceOnUse"><stop stop-color="#fff"></stop><stop offset="1" stop-color="#999"></stop></linearGradient></defs></svg>