<svg xmlns="http://www.w3.org/2000/svg" width="40" height="40" fill="none" data-sentry-element="RobotIcon" data-sentry-source-file="index.tsx"><path fill="#364F66" d="M27.974 9.261a.63.63 0 0 1-.372-.11c-.439-.311-.348-1.153-.344-1.189-.023-.207-.106-.363-.247-.444-.323-.19-.858.04-.863.042a.08.08 0 0 1-.103-.04.08.08 0 0 1 .04-.104c.025-.01.611-.263 1.005-.034q.28.165.324.58c-.001.025-.085.803.279 1.06.184.13.462.106.825-.071a.078.078 0 1 1 .069.14q-.348.17-.613.17M32.032 14.975a.08.08 0 0 1-.078-.065l-.214-1.186c-.26.05-1.08.209-1.246.223-.037.01-.081-.027-.085-.07a.08.08 0 0 1 .071-.086c.185-.016 1.297-.234 1.308-.236q.032-.007.06.012a.08.08 0 0 1 .033.05l.228 1.266a.08.08 0 0 1-.077.092"></path><path fill="#DBE7FE" d="M21.105 34.507c8.778-.314 15.624-7.27 15.29-15.538-.334-8.267-7.72-14.714-16.5-14.4-8.778.315-15.624 7.272-15.29 15.539s7.72 14.714 16.5 14.4"></path><path fill="#8FB0D8" d="M33.781 21.823c-1.311 6.615-6.642 11.229-11.906 10.304-5.268-.926-8.473-7.04-7.162-13.656 1.312-6.615 6.642-11.226 11.91-10.3 5.264.925 8.47 7.037 7.158 13.652"></path><path fill="#324566" d="M34.635 21.85c-1.311 6.615-6.642 11.228-11.907 10.303-5.268-.926-8.472-7.04-7.161-13.655 1.311-6.616 6.641-11.226 11.909-10.3 5.264.925 8.47 7.036 7.159 13.651"></path><path fill="#C8FF00" d="m27.166 13.054 1.22-.47c.235-.09.5.039.56.272l1.969 7.805a.385.385 0 0 1-.241.449l-1.123.449c-.234.093-.502-.032-.563-.265L26.92 13.51a.385.385 0 0 1 .245-.456M21.373 16.128l1.22-.469c.235-.09.5.038.56.27l1.969 7.806a.385.385 0 0 1-.241.45l-1.123.448c-.234.093-.501-.032-.563-.265l-2.067-7.785a.385.385 0 0 1 .245-.455"></path></svg>