<svg xmlns="http://www.w3.org/2000/svg" width="24" height="24" fill="none" class="size-5" viewBox="0 0 24 24"><path stroke="#C8FF00" stroke-linecap="round" stroke-linejoin="round" stroke-width="2" d="M2 14h2m16 0h2m-7-1v2m-6-2v2M6 8h12a2 2 0 0 1 2 2v8a2 2 0 0 1-2 2H6a2 2 0 0 1-2-2v-8a2 2 0 0 1 2-2"></path><path fill="#C8FF00" d="M20.494 8.455c2.27-1.697 1.673-4.207.186-6.197-.334-.389.19 1.227.197 1.389.337 1.22.084 2.829-1.139 3.28-.516.212-1.223.11-1.62.56-.32.345-.34.946-.038 1.309.559.667 1.743.146 2.372-.312zM3.506 8.455c-2.27-1.697-1.673-4.207-.186-6.197.334-.388-.19 1.228-.197 1.39-.337 1.22-.084 2.828 1.139 3.28.516.212 1.223.109 1.62.56.32.344.34.945.038 1.308-.558.667-1.743.147-2.372-.311z"></path></svg>