<svg xmlns="http://www.w3.org/2000/svg" width="24" height="24" fill="none"><path fill="transparent" d="M8 22.001a1 1 0 1 0 0-2 1 1 0 0 0 0 2M19 22.001a1 1 0 1 0 0-2 1 1 0 0 0 0 2M2.05 2.05h2l2.66 12.42a2 2 0 0 0 2 1.58h9.78a2 2 0 0 0 1.95-1.57l1.65-7.43H5.12"></path><path stroke="#c8ff00" stroke-linecap="round" stroke-linejoin="round" stroke-width="2" d="M2.05 2.05h2l2.66 12.42a2 2 0 0 0 2 1.58h9.78a2 2 0 0 0 1.95-1.57l1.65-7.43H5.12M9 21.002a1 1 0 1 1-2 0 1 1 0 0 1 2 0m11 0a1 1 0 1 1-2 0 1 1 0 0 1 2 0"></path></svg>