<svg xmlns="http://www.w3.org/2000/svg" width="24" height="24" fill="none"><path fill="#C8FF00" d="M12.324 13.815q.44-1.047 1.206-1.481.774-.457 2.026-.49l1.803-.066a3.1 3.1 0 0 0 1.307-.333q.579-.322.84-.947.524-1.247-.026-2.495-.532-1.237-2.026-2.13-1.475-.88-2.755-.613-1.27.245-2.017 1.58l-2.353-1.404Q11.57 2.975 13.7 2.463q2.158-.523 4.753 1.027 2.614 1.561 3.52 3.745.923 2.196-.049 4.512a3.85 3.85 0 0 1-1.439 1.76q-.971.646-2.316.678l-1.914.055q-.691.033-1.158.256-.44.21-.692.813l-.299.713-2.073-1.238q.047-.279.122-.513t.168-.456m-1.44 6.661a1.96 1.96 0 0 1-.887-1.114 2.17 2.17 0 0 1 .094-1.504q.318-.758.943-.969.635-.234 1.29.157.671.4.877 1.137.233.723-.085 1.481t-.953.991q-.607.223-1.28-.179M4.894 15.893q-.166-.74.05-1.35.214-.626.815-1.29l.858-.968q.35-.398.52-.841.165-.459.066-.9-.199-.881-.922-1.208-.711-.33-1.768.008-1.044.333-1.573 1.128-.533.779-.412 1.82l-1.664.532q-.289-1.85.568-3.204.866-1.375 2.702-1.962 1.85-.591 3.088.01 1.253.596 1.62 2.234a3.16 3.16 0 0 1-.063 1.608q-.24.82-.887 1.533l-.918 1.02a2.8 2.8 0 0 0-.474.726q-.138.33-.042.756l.113.505-1.466.468a2 2 0 0 1-.127-.314 4 4 0 0 1-.084-.31m1.721 4.01q-.462.148-.84-.086-.381-.25-.502-.785-.12-.537.11-.964.226-.444.687-.592.476-.151.844.102.378.234.499.77.12.535-.106.98a1.13 1.13 0 0 1-.692.575"></path></svg>