<svg xmlns="http://www.w3.org/2000/svg" width="40" height="40" fill="none" data-sentry-element="GamesIcon" data-sentry-source-file="index.tsx"><path fill="#C8FF00" d="M16.07 32.317H6.93a.93.93 0 0 1-.93-.93v-9.14a.93.93 0 0 1 .93-.93h9.14a.93.93 0 0 1 .93.93v9.14a.93.93 0 0 1-.93.93m-8.21-1.86h7.28v-7.28H7.86z"></path><path fill="#fff" d="M27.511 22.174a4.4 4.4 0 0 1 4.393 4.393 4.4 4.4 0 0 1-4.393 4.393 4.4 4.4 0 0 1-4.393-4.393 4.4 4.4 0 0 1 4.393-4.393m0-1.607a6 6 0 1 0 0 12 6 6 0 0 0 0-12M16.184 17a.94.94 0 0 1-.665-.275L6.4 7.606a.94.94 0 1 1 1.33-1.33l9.118 9.118A.94.94 0 0 1 16.184 17"></path><path fill="#fff" d="M7.066 17a.94.94 0 0 1-.665-1.606l9.118-9.118a.94.94 0 1 1 1.33 1.33L7.73 16.725a.94.94 0 0 1-.665.275"></path><path fill="#C8FF00" d="M32.869 16.737h-10.22a.888.888 0 0 1-.77-1.332l5.109-8.833a.89.89 0 0 1 1.541 0l5.11 8.833a.888.888 0 0 1-.77 1.332M24.19 14.96h7.138l-3.57-6.17z"></path></svg>