<svg xmlns="http://www.w3.org/2000/svg" width="800" height="800" fill="none" viewBox="0 0 800 800" class="size-4" data-sentry-element="GlobalIcon" data-sentry-source-file="index.tsx"><g clip-path="url(#global_svg__a)"><path fill="#fff" d="M594.433 617.76c-16.699 44.401-37.773 83.367-63.354 112.26 58.847-23.327 111.068-63.353 148.841-112.26zM422.267 573.361h139.961c13.386-45.592 22.267-96.62 24.387-151.093H422.267zM546.72 617.76H422.267v135.586c49.965-12.193 94.367-63.354 124.453-135.586M422.267 46.654V182.24H546.72c-30.086-72.233-74.488-123.393-124.453-135.586M562.226 226.639H422.265v151.093h164.479c-2.251-54.34-11.13-105.499-24.518-151.093M711.067 226.639H609.94c12.193 45.592 20.015 96.619 21.074 151.093h124.454c-4.373-54.34-19.881-105.499-44.401-151.093M532.273 69.98c25.58 29.953 46.654 67.726 63.353 112.26h86.68C642.28 133.333 591.12 93.307 532.273 69.98M608.88 573.361h101.126c25.581-45.592 41.086-96.62 44.402-151.093H631.014c-2.122 54.34-9.941 104.439-22.134 151.093M191.12 573.361c-12.193-45.592-20.015-96.62-21.074-151.093H45.592c3.313 54.473 18.952 105.501 44.401 151.093zM377.733 422.268H213.385c2.253 54.473 9.939 105.501 24.387 151.093h139.961zM267.727 730.02c-25.58-29.953-46.654-67.726-63.353-112.26h-86.547c39.893 48.907 91.053 88.933 149.9 112.26M253.28 182.24h124.453V46.654c-49.966 12.193-94.367 63.353-124.453 135.586M45.592 377.732h124.454c1.059-54.474 8.879-104.439 21.074-151.093H88.933c-24.52 45.594-40.026 96.753-43.34 151.093M377.733 753.348V617.762H253.28c30.086 72.23 74.487 123.391 124.453 135.586M377.733 226.639H237.772c-13.386 45.592-22.267 96.619-24.387 151.093h164.479V226.639zM118.887 182.24h86.68c16.699-44.401 37.773-83.367 63.354-112.26-60.041 23.327-111.201 63.353-150.034 112.26"></path><path fill="#5888B4" d="M400 0C178.927 0 0 178.927 0 400s178.927 400 400 400 400-178.927 400-400S621.073 0 400 0m231.146 377.733c-1.06-54.474-8.88-104.439-21.074-151.094h101.126c25.58 45.593 41.086 96.62 44.401 151.094zm123.262 44.534c-3.314 54.474-18.952 105.501-44.402 151.094H608.88c12.195-45.593 20.014-96.62 21.074-151.094zM594.433 182.24c-16.699-44.401-37.773-83.367-63.354-112.26 58.847 23.327 110.008 63.353 148.841 112.26zM422.267 377.733V226.639h139.961c13.386 45.593 22.267 96.62 24.387 151.094zm164.346 44.534c-2.253 54.474-9.939 105.501-24.387 151.094H422.265V422.267zM422.267 182.24V46.654c49.968 12.193 94.5 63.354 124.453 135.586zm0 435.52H546.72c-29.953 72.232-74.485 123.393-124.453 135.586zm110.006 112.261c25.58-29.954 46.654-67.727 63.353-112.261h86.68c-40.026 48.907-91.186 88.933-150.033 112.261m-294.499-156.66c-13.386-45.593-22.267-96.62-24.387-151.094h164.479v151.094zm139.959 44.399v135.586c-49.968-12.193-94.5-63.354-124.453-135.586zM213.387 377.733c2.253-54.474 9.939-105.501 24.387-151.094h139.961v151.094zm-7.82-195.493h-86.68c38.833-49.967 89.993-88.933 148.84-112.26-24.387 29.953-46.654 67.728-62.16 112.26m-14.447 44.399c-12.193 45.593-20.014 96.62-21.074 151.094H45.592c3.313-54.474 18.952-105.501 44.402-151.094zm-22.266 195.628c1.06 54.474 8.88 104.439 21.074 151.094H88.934c-25.58-45.593-41.086-96.62-44.402-151.094zm36.713 195.493c16.699 44.401 37.773 83.367 63.354 112.261-58.847-23.328-111.068-63.354-148.841-112.261zm172.166-435.52H253.28c29.953-72.232 74.485-123.393 124.453-135.586z"></path></g><defs><clipPath id="global_svg__a"><path fill="#fff" d="M0 0h800v800H0z"></path></clipPath></defs></svg>