<svg xmlns="http://www.w3.org/2000/svg" width="800" height="800" fill="none" viewBox="0 0 800 800" class="size-4" data-sentry-element="KzIcon" data-sentry-source-file="index.tsx"><g clip-path="url(#kz_svg__a)"><path fill="#00AFCA" d="M800 600a88.89 88.89 0 0 1-88.889 88.889H88.889A88.89 88.89 0 0 1 0 600V200a88.89 88.89 0 0 1 88.889-88.889H711.11A88.89 88.89 0 0 1 800 200z"></path><path fill="#FFCC4D" d="M423 430.622c35.162 0 63.667-28.504 63.667-63.666S458.162 303.289 423 303.289s-63.667 28.505-63.667 63.667 28.505 63.666 63.667 63.666"></path><path fill="#FFCC4D" d="M423.044 298.489c3.778-.045 5.156-2.422 5.156-5.245 0-3.777-5.156-33.244-5.156-33.244s-5.244 29.467-5.244 33.244c0 2.823 1.422 5.245 5.244 5.245m0 137.289c-3.822.022-5.244 2.4-5.244 5.222 0 3.8 5.244 32.867 5.244 32.867S428.2 444.778 428.2 441c.022-2.8-1.378-5.222-5.156-5.222m-17.8-2.689c-3.666-.933-5.6 1-6.333 3.733-.978 3.645-3.622 33.467-3.622 33.467s12.689-27.133 13.667-30.778c.755-2.733-.023-5.444-3.712-6.422M440.8 300.467c3.689.977 5.689-.978 6.422-3.689.978-3.667 3.422-33.111 3.422-33.111s-12.488 26.733-13.488 30.422c-.734 2.711-.023 5.4 3.644 6.378M388.733 426.2c-3.311-1.844-5.689-.489-7.089 1.978-1.888 3.266-12.155 31.378-12.155 31.378s19.267-22.912 21.155-26.178c1.423-2.467 1.4-5.267-1.911-7.178m68.645-118.911c3.311 1.911 5.755.533 7.155-1.911 1.911-3.289 11.889-31.067 11.889-31.067s-19.022 22.6-20.933 25.867c-1.378 2.444-1.378 5.222 1.889 7.111m-82.822 108.044c-2.712-2.644-5.356-1.955-7.356.045-2.667 2.689-19.867 27.178-19.867 27.178s24.556-17.156 27.223-19.8c2-2 2.711-4.756 0-7.423m97.088-97.111c2.712 2.689 5.4 2 7.4 0 2.689-2.666 19.534-26.955 19.534-26.955s-24.2 16.933-26.867 19.622c-2 2-2.733 4.667-.067 7.333m-107.933 82.911c-1.933-3.244-4.667-3.244-7.133-1.844-3.289 1.889-26.222 21.089-26.222 21.089s28.155-10.178 31.422-12.067c2.466-1.422 3.844-3.867 1.933-7.178M482.6 332.489c1.933 3.311 4.733 3.333 7.156 1.933 3.288-1.911 25.844-20.978 25.844-20.978s-27.756 10.067-31.044 11.956c-2.445 1.422-3.823 3.8-1.956 7.089m-125.711 52.133c-1.022-3.644-3.689-4.355-6.422-3.644-3.645.978-30.778 13.6-30.778 13.6s29.822-2.556 33.467-3.534c2.733-.755 4.711-2.733 3.733-6.422m132.578-35.555c1.022 3.689 3.689 4.444 6.422 3.711 3.667-.978 30.4-13.556 30.4-13.556s-29.422 2.534-33.111 3.511c-2.711.711-4.689 2.689-3.711 6.334m-134.911 17.844c-.045-3.778-2.423-5.155-5.245-5.155-3.778 0-33.244 5.155-33.244 5.155s29.466 5.245 33.244 5.245c2.822 0 5.245-1.423 5.245-5.245m137.288 0c.023 3.822 2.4 5.245 5.223 5.245 3.8 0 32.866-5.245 32.866-5.245s-29.089-5.155-32.866-5.155c-2.823-.023-5.223 1.377-5.223 5.155M356.889 349.2c.933-3.667-1-5.6-3.733-6.333-3.645-.978-33.467-3.623-33.467-3.623s27.133 12.689 30.778 13.667c2.733.733 5.444-.022 6.422-3.711m132.6 35.533c-.978 3.689.978 5.689 3.689 6.423 3.666.977 33.111 3.422 33.111 3.422s-26.733-12.511-30.422-13.489c-2.711-.711-5.4-.022-6.378 3.644m-125.756-52.044c1.845-3.289.489-5.689-1.977-7.089-3.267-1.889-31.378-12.156-31.378-12.156s22.911 19.267 26.178 21.156c2.466 1.422 5.266 1.378 7.177-1.911m118.911 68.644c-1.911 3.311-.533 5.756 1.912 7.156 3.266 1.911 31.066 11.889 31.066 11.889s-22.6-19-25.866-20.911c-2.445-1.4-5.223-1.4-7.112 1.866M374.6 318.511c2.644-2.711 1.956-5.355-.044-7.355-2.689-2.667-27.178-19.867-27.178-19.867s17.155 24.555 19.8 27.222c2 2 4.733 2.711 7.422 0m97.111 97.089c-2.689 2.711-2 5.422 0 7.4 2.667 2.689 26.956 19.533 26.956 19.533s-16.934-24.2-19.623-26.889c-2-2-4.666-2.733-7.333-.044m-82.889-107.956c3.222-1.933 3.245-4.666 1.845-7.133-1.889-3.267-21.089-26.222-21.089-26.222s10.178 28.155 12.066 31.422c1.4 2.467 3.867 3.845 7.178 1.933m68.645 118.912c-3.289 1.911-3.334 4.688-1.934 7.133 1.911 3.289 20.978 25.844 20.978 25.844s-10.067-27.777-11.955-31.066c-1.423-2.423-3.823-3.823-7.089-1.911m-52.156-125.734c3.645-1.022 4.356-3.689 3.645-6.422-.978-3.644-13.6-30.778-13.6-30.778s2.555 29.822 3.533 33.467c.733 2.733 2.733 4.711 6.422 3.733m35.556 132.6c-3.689 1.022-4.445 3.689-3.711 6.422.977 3.667 13.555 30.4 13.555 30.4s-2.533-29.444-3.511-33.088c-.711-2.734-2.689-4.712-6.333-3.734"></path><path fill="#FFCC4D" d="m485.467 525.444-.823.356-.911.133-.689.134-1.266-.267-.556-.222-.511-.245-.6-.378-1-.711-.911-.733-.511-.356-.645-.266-.444-.111h-.645L473.444 528l-.511.733-.489.6-.511.378-.444.378-.645.244h-.6l-.555-.244-.778-.378-.222-.378-.267-.378-.267-.488-.266-.578-.356-1.845-.733.6-.689.867-1.378 2.089-.822 1.089-.867.844-.466.511-.6.378-.6.267-.734.222h-.355l-.645.133-.6-.133-.466-.222-1.422-1.711-1.6-1.711-1.089 1.711-1.267 1.444-.6.6-.556.6-.6.489-1.133.622-.6.134h-.6l-.511-.134-.489-.266-.355-.378-.467-.578a56 56 0 0 0-1-2.689l-.133-.622-.223-.467-.266-.244h-.267l-3.289 5.378-.467.466-.866.378-1.911.467h-1.134l-.866-.245-.267-.133-.356-.378-.088-.222v-.489l.444-5.378-.356.134-.955.466a77 77 0 0 0-2.556 2.8l-1.089 1.356-1.355 1.133-1.267.956-.711.4-1.467.222-.6-.133-.266-.089-.245-.267-.133-.378v-.378l.133-1.555.378-2.467-.244-1.444-.511-.845-.734 1.089-1.2 1.578a105 105 0 0 1-3.066 3.2 30 30 0 0 0-1.712 1.222l-1.333.467-.267-.133h-.377l-.267-.223-.089-.133-.267-.378-.088-.378v-.466l-.134-.622.134-4.623a184 184 0 0 1-6.734 4.378l-.844.378-.956.489c-.911.222-1.8.444-2.689.711h-.889l-.822-.111-.755-.267.377-.978.734-1.711.466-.711.534-.733.466-.734 1.245-1.222 1.355-.955 1.556-1 1.6-.734 1.844-.6 1.823-.466 4.155-.734 2.067-.266c6.133-.356 12.289-.4 18.422-.356l6.733-.378 2.089-.244 3.867-.733 1.867-.512 1.733-.711 1.6-.733a57 57 0 0 1 2.6-1.956l1.178-1.377-1.267-2.423 1-.133.956-.222 1-.489.822-.622.355-.222.4-.378.267-.489.267-.356.089-.489v-.844l-.267-.489 2.089-.378 2.222-.244 2.333-.133h2.423c3.4.133 6.777.333 10.155.6 5.111.622 10.245 1.111 15.378 1.6l4.6.244v1.689l-.089.755-.267.712-.222.733-.266.6-.356.489a27 27 0 0 1-1.356 1.444l-1.088.711-1.178.489-1.178.267-1.356.244-2.6-.244-1.355-.378-1.178-.622-1.267-.6-.955-.867-.956-.955v2.089c-.177 1.355-.4 2.688-.6 4.044l-.466 1.267-.267.511-.356.355-.266.378zm-98.178-11.489 2.778 1.223a32 32 0 0 1 1.711-1.334l1.089-.577.977-.623 3.667-1.466 3.156-1.467 1.6-.6 2.711-1.444 1.089-.756c2.755-1.8 5.533-3.578 8.311-5.333l2.422-1.711 1.844-1.467a286 286 0 0 0 5.378-5l.734-.489.844-.489q1.517-.767 3.067-1.467l2.066-.711a116 116 0 0 1 12.556-2.689c4.311-.511 8.622-1.088 12.933-1.577l5.734-.978c1.422-.4 2.844-.756 4.288-1.089l1.467-1.844 2.356-2.556 1.6-1.578 1.777-1.489 2.089-1.577 2.422-1.6 3.689-2.178a528 528 0 0 0 7.889-4.045c4.667-2.177 9.267-4.489 13.845-6.844l2.178-1.467.6-1.844.866-1.8 1.089-1.845 2.822-3.777a168 168 0 0 0 3.778-4.178 120 120 0 0 1 4.645-4.267l2.355-1.933 1.178-.867 1.267-.844c.888-.511 1.777-1 2.688-1.467l1.356-.622 1.311-.467 2.867-.755 1.422-.089 1.356-.134 1.422.134 1.355.222-.089 1.467-.355 1.444-1.089 3.067-.911 1.577-1.089 1.6-1.333 1.689-1.6 1.711 1.266-.133 1.089-.244.867-.267.822-.356 1.6-.488 2.289-.245.133.867v.844l-.133.845-.222.733-.356.733-.511.734-.467.577-.6.623a173 173 0 0 1-5.133 4.755l1.445.134c1.066.333 2.133.666 3.222.955l1.178.267-1.423 1.111a112 112 0 0 1-3.422 2.2l-3.911 2.2-1.956 1.222-1.955 1.356-1.822 1.466.822.111 1.133.489.489.134.467.244.4.111.355-.111-2.422 1.356a169 169 0 0 0-4.511 2.2l-1.867 1.111-.355.378-.222.377-.267.356.089.489.266.377.467.356.445.4-.178.467-.267.4-.467.355-.444.378-1.178.578-1.422.622-2.778.978-1.733.867 2.422 2.422-.867.844-.822.622-.733.378-.867.356-1.689.244h-2.4l.267 1.111.355 1.089.512 2.467a99 99 0 0 1-4.645 3.4L499 494.422l-3.133 1.822-1.867.867-1.822.844q-3.087 1.2-6.245 2.2l-4.733 1-2.6.378c2.822.089 5.644.134 8.467.111l6.933-.733 3.044-.6 2.689-.733c1.778-.6 3.511-1.267 5.245-1.956l3.377-1.555 3.334-1.845 3.133-1.978 3.333-1.933-2-.978-1.911-.6-.911-.422c-.689-.333-1.377-.667-2.089-.956l-1.133-.622.956-.711 1.177-.489 1.267-.466c1.467-.356 2.956-.689 4.422-1 1.911-.2 3.823-.445 5.734-.712l2.422-.244 1.866-.467.489-.266.356-.378-.089-.133-.267-.245-.355-.133-.467-.222-1.355-.267-1.734-.245-1.689-.133-1.689-.244-1.511-.378-.911-.378 11.934-2.667 2.089-.622c.911-.333 1.799-.711 2.688-1.089l1.178-.755.511-.467-.133-.111-.222-.267-1.134-.244-1.555-.133h-1.867c-1.266-.089-2.511-.178-3.778-.223l-1.555-.266-1-.245 1.733-.711c2.578-.8 5.2-1.533 7.822-2.222 1.489-.511 3-1.022 4.512-1.467l2.311-.978 1.089-.6 1-.6.355-.377.378-.489.355-.356.134-.378-.134-.377-.355-.267-.378-.089h-3.378l-1.6.089h-2.177l-.645-.089-.422-.267-.533-.244a775 775 0 0 1 13.444-8.689l3.511-2.444a73 73 0 0 0 2.778-2.423l1.089-1.222 1-1.222.733-1.333.6-1.334.356-1.489v-1.577h-.823l-.866.133-1.911.711a121 121 0 0 1-5.156 3.067l-.955.622-1.134.467-1.089.377-1 .245-.955.133h-1.134l-.955-.378 2.955-2.2a621 621 0 0 0 7.067-6.111 221 221 0 0 0 7.556-7.577l3.511-3.912a142 142 0 0 1 3.2-4.044 141 141 0 0 0 2.555-3.778l.267-.466.089-.378-.089-.511-.133-.356-.134-.4-.355-.244-.378-.378-.356-.133-.466-.223-.534-.133h-.955l-.467.133-.644.089-.356.4-.511.378a397 397 0 0 0-7.378 7.578l-2.955 2.8a445 445 0 0 1-5.867 5.022 75 75 0 0 1-2.822 1.822l-2.689 1.356.822-.734a92 92 0 0 0 2.6-2.555c3.133-3.6 6.133-7.333 9.022-11.111l5.645-7.934 1.511-2.666 1.511-2.445 1.222-2.222.956-2.089.6-1.689.133-.6v-.977l-.133-.378-.445-.734-.266-.244-.4-.111-.689-.4-.911-.245h-1.667l-.467.134-.355.111-.511.267-.356.355-1 .867a95 95 0 0 0-3.178 4.044 227 227 0 0 1-7.689 11.222l-3.088 3.667-1.556 1.6-1.689 1.467 2.178-4.067 3.422-7.178 2.222-5.244.956-2.689 1.689-5.511c.422-1.778.8-3.556 1.133-5.356.156-1.666.289-3.333.4-5.022l-.178-1.222-.089-1.089-.133-1.133-.355-1.423-.267-.4-.6-.6-.822-.355-.911-.267h-.823l-.777.134-.223.133-.355.089-.134.266c-2.2 6.934-3.866 14-5.777 21a314 314 0 0 1-2.178 5.867l-1.822 3.533-1.134 1.578.734-3.511c.355-2.044.666-4.067.955-6.111l.511-5.022.134-2.089a77 77 0 0 0-.267-3.178l-.222-1.222-.356-.978-.511-.733-.266-.245-.734-.244-.355-.133h-.4l-.356.133-1 .244-.955.489a163 163 0 0 1-2.689 11.245 137 137 0 0 1-5.111 13.777 168 168 0 0 1-4.178 8.178l-2.689 4.645-2.911 4.377a195 195 0 0 1-6.067 8.045 358 358 0 0 1-6.244 6.844 261 261 0 0 1-6.734 6.378 249 249 0 0 1-7.155 5.711 166 166 0 0 1-9.067 6.111L477.333 469l-8.555 3.933-8.8 3.156-7.289 2.222-7.556 1.689-3.777.622-7.734.978-3.911.244-.378.134-.378.111-.733.4-.822.578q-1.436 1.251-2.822 2.555l-1.956 1.978-7.089 7.911-2.689 2.689-3.155 2.422-1.245.845-1.222.755-2.666 1.222c-4.134 1.689-8.334 3.223-12.489 4.889l-1.089.6-.978.511-.711.467-1.356 1.356-.377.6-.267.6-.089.866v.622"></path><path fill="#FFCC4D" d="m432.022 519.444 2.045.267 1 .378.222.111v.133h-.222l-.267.111-1.956.378h-1.555l-5.111-.378-12.956-.244c-3.422.044-6.844.133-10.266.244-3.023.222-6.023.467-9.045.734l-2.333.377-2.067.467c-.489.178-.955.356-1.444.489l-.623.267-.488.377.222-1.244.533-1.245-1.711.489-1.467.734-.577.378-.512.488-.377.578-.089.622-.356-.844-.266-.756a18 18 0 0 0-.267-1.577c.133-.645.267-1.289.355-1.934l.4-.622.223-.489.511-.578.978-.977 1.333-.867 1.511-.845c.796.467 1.647.832 2.533 1.089a7.2 7.2 0 0 0 2.6-.244c1.356 1.2 4.867.956 5.356-1.222a5.34 5.34 0 0 0 0-2.445l1.467-.111 1.711-.267 3.777-.977 1.978-.378 1.822-.467 1.712-.244 1.444-.133-.6.511-3.178 2.422-1.2.844 1.556.4 1.355.245-2.889 3.289-.755.977.955.378.978.267 1.111.244h2.2l2.178-.489.867-.511 1 .511.978.378c.622.178 1.266.356 1.911.489 1.511.156 3.022.333 4.555.467h9.2m-11.133-37.156-1.089 2.2-1.244 2.822a58 58 0 0 0-1.8 3.512l-.623.622-1.444-1.223-1.6-1.111-1.711-.866-1.8-.711-3.934-1-1.933-.356a150 150 0 0 0-6.355-.6q-4.217-.066-8.423-.4l-3.911-.467-2.2-.377-2.066-.467-2.178-.756-1.845-.955-1.355-.889-2.8-2.067c-4.089-3.844-8.134-7.733-12.334-11.489l-2.422-1.689-1.111-.488-1.155-.356-2.067-.467q-1.81-.646-3.645-1.222a98 98 0 0 0-3.444-1.578 70 70 0 0 1-5.844-4.044l-1.223-1.133-2.422-2.423-2.333-2.555c-3.845-4.689-7.467-9.534-11.222-14.289a219 219 0 0 0-5.489-5.622l-1.578-1.445-1.6-1.333-3.511-2.556-.356.112-.4.377-.378.489a22 22 0 0 0-.577 1.711l-.134.489-.889-.4-.733-.378-.889-.377-.733-.245h-1.578l-.867.245-.844.377a70 70 0 0 1 1.933 2.556l1.089 1.711L307.8 437l.711 1.844.267.978.266.733.112.845v.711h-6.578l.955 1.467c.734 1 1.511 1.977 2.289 2.933l4.045 4.044 1.355 1.089 1.245.867q-1.587.166-3.178.267l-3.2.355 1.089 1A84 84 0 0 1 310 456.2l1.578 1.089 1.6.977 1.578.867 1.466.489 1.356.356 1.089.244.355.133.267.267.089.111v.467l-.356 1-.089.711-.155.489v.355l.155.623.089.489.267.222.355.266.467.245.622.133 1.245.489.6.222.489.378.111.133v.245l-.111.133-.978.711-.489.489-.489.6v.511l-.111.489.244 1.311 4.267 1.467.978.222.978.4.733.378.622.378-4.044 3.177 1.089.978 1.355.734 1.711.844c1.223.444 2.445.844 3.689 1.244l1.822.356 1.6.378h1.445l-1.356.978-1.711 1.089-1.822.999-1.356.978 1.223.845a142 142 0 0 0 11.377 5.266c6.756 2.756 13.667 5.156 20.623 7.311 1.555.378 3.089.778 4.622 1.223l1.955.377-3.933-.377a167 167 0 0 1-7.311-1.111l-3.422-.734-6.734-1.933-3.155-1.111c-8.445-3.289-16.689-7.067-25.156-10.267l.623-.355 1.711-.623 1.089-.244a78 78 0 0 0 4.4-1.467 166 166 0 0 1-8.689-1.555 105 105 0 0 0-4.511-1.356l-.867-.378-.733-.377-.6-.4-.4-.356v-.111l.133-.133.378-.134.355-.244.978-.378 4.267-1.244 2.466-.845a344 344 0 0 0-10.644-1.822l-1.711-.4-1.356-.467-.489-.266-.466-.378-.4-.222-.245-.4.378-.245 1.089-.244a93 93 0 0 0 3.422-.6l1.956-.245c1.111-.311 2.2-.644 3.289-1l.511-.355.489-.4-1.934-.734-1.244-.222-1.222-.267-5.6-.733-1.467-.355-1.356-.267-2.689-.956-1.244-.622-1-.711-.978-.867-.733-1.088.267-.134.466-.133h.622l.978.133 4.645.245 2.711.266h3.4l.955-.133.756-.244.489-.267a203 203 0 0 1-6.845-2.934 141 141 0 0 0-4.533-2.199l-4.622-2.423-2.2-1.355a167 167 0 0 1-4.022-2.934l-1.712-1.466-.755-.845-.756-.733-.466-.733-.511-.867-.489-.711-.267-.845-.2-1.577h.822l.978.111.978.4.978.355 1.933 1.222 2.2 1.223.978.622 1.089.578 1.088.489.978.377 1.089.267.978.111h1.111l.956-.378-2.889-2.222a306 306 0 0 1-7.089-6.067 194 194 0 0 1-11.134-11.511l-1.555-2.066-1.6-1.956a160 160 0 0 1-2.578-3.8l-.222-.489V418l.111-.378.111-.355.378-.245.355-.378.4-.266.467-.134.489-.089h.978l.6.089.533.134.467.377a380 380 0 0 1 7.8 7.956 147 147 0 0 0 8.8 7.822l2.8 1.8 1.444.756 1.356.466-.956-.6-2.555-2.555c-3.134-3.6-6.111-7.334-9.045-11.111a237 237 0 0 1-3.8-5.378 164 164 0 0 0-3.422-5.245 120 120 0 0 1-2.689-4.644 112 112 0 0 0-1.555-3.778l-.156-.6v-1l.156-.355.466-.734.267-.266.378-.223 1.577-.511h1.712l.488.112.356.133.489.266 1.355 1.223 3.178 4.044a230 230 0 0 0 7.822 11.222l2.889 3.667 1.6 1.578 1.711 1.467a294 294 0 0 1-5.6-11.201 219 219 0 0 1-2.2-5.244l-.977-2.689a99 99 0 0 0-1.711-5.511l-.6-2.689-.445-2.733-.267-2.556-.111-2.422.111-1.222.156-1.111.111-1.111.245-1.089.244-.4.133-.356.356-.4.244-.222.845-.378.866-.222h.845l.733.133.356.089.266.134.134.266.133.356c2.089 6.822 3.8 13.755 5.6 20.666a162 162 0 0 0 2.222 5.734l.845 1.822.978 1.711 1.088 1.711-.711-3.555q-.419-3.045-.977-6.067a187 187 0 0 1-.6-7.089l.244-3.178.244-1.244.378-.956.489-.733.245-.267.355-.244.356-.111h1.111l1 .355.955.489 1.711 7.689a126 126 0 0 0 2.067 6.956c1.245 3.489 2.6 6.955 4.045 10.377l1.711 3.534 2.444 4.666 2.667 4.623 2.955 4.4 3.156 4.377 2.955 3.667c2.045 2.311 4.112 4.6 6.223 6.844q3.3 3.234 6.733 6.334l3.533 2.955a152 152 0 0 0 10.023 7.2c2.688 1.6 5.422 3.156 8.177 4.645l8.4 4.044a195 195 0 0 0 12.934 4.623c4.266 1.133 8.6 2.111 12.955 2.933 5.845.933 11.845 1.489 17.867 1.733M76.822 633.822S71.556 638.2 69.778 636c-2.867-3.556 8.822-21.311 8.822-27.578 0-10.244-6.867-13.089-15.311-14.533-5.689-.978-14.911.422-14.911.422 1.733 2.333 2.867 3.067 5.8 3.2a12.31 12.31 0 0 0-6.578 11.133c0 8.8 3.645 12.445 3.645 22.423 0 5.533-4.534 12.555-4.534 12.555 8-.8 12-8.2 9.734-14.155a3.86 3.86 0 0 1 3.422 1.044c.578-1.622-.334-3.555-1.578-5.178 1-.511 1.733-.2 3.311.111-.156-1.688-1.178-3.466-3.644-5.155 7.2 1.844 11.622-3.156 11.622-8.4 0-4-2.778-6.845-5.511-6.845a5.7 5.7 0 0 0-2.911.912c-.511-1.067-.245-2.534.266-3.623-1.977.511-3.244 1.689-2.333 4.178a4.89 4.89 0 0 0-3.578 1.645 4.28 4.28 0 0 0 3.578 1.6c-1.111 2.311.133 3.622 1.933 4.644 0 0-1.155-4.644 1.8-4.644 1.334 0 2.534.466 2.534 2.4 0 1.666-1.49 4.022-4.911 3.888-3.445-.155-6.223-2.377-6.223-7.822 0-5.089 4.067-7.6 9.423-7.755 4.844-.156 8.488 2.466 8.488 7.466 0 6.623-9.6 21.778-9.6 27.689 0 4.445 3.978 6.911 7.89 6.911 5.066 0 9.333-5.022 9.333-5.022zm-1.11-120.044c0-11.067 9.955-16.778 17.777-16.778 10.533 0 16.156 6.311 16.156 14.533 0 4.711-.867 7.645-3.023 12.111L82.467 573.8a14.9 14.9 0 0 0-1.134 6.667c0 4.489 4.378 8.177 8.956 8.289 4.156.111 8.711-3.889 8.711-8.445 0-5.533-2.844-7.978-5.8-7.978-3.622 0-5.067 1.467-5.067 4.023 0 1.8.867 2.555 2.09 2.555 3.11 0 2.244-4.178 2.244-4.178a2.893 2.893 0 0 1 2.089 3.911 5.5 5.5 0 0 1 3 1.756 5.5 5.5 0 0 1-3 1.644c.733 2.4-.245 3.578-2.334 4.089.36-.809.461-1.709.29-2.577-3.312.933-8.379-.534-8.379-6.267 0-5.689 3.934-10.467 11.334-9.289-1.778-.8-2.645-2.511-2.823-4.467 1.334.556 2.823.623 2.823.623-.867-1.512-2.067-2.823-2.022-5.845 1.377.645 2.644 1.778 4.4 1.045-2.756-5.4.622-12.823 9.244-14.623a17.78 17.78 0 0 0-4.689 11.645c0 12.889 3.6 15.022 3.6 23.955a13.25 13.25 0 0 1-5.733 10.534v-.156c2.489.667 4.111 1.933 5.044 3.6-5.755 1.622-14.133 1.6-18.6-.155a13.79 13.79 0 0 1-9.844-6.556 19.93 19.93 0 0 1 0-15.867c3.422-7.133 19.555-41.333 24.578-52.111a17.1 17.1 0 0 0 1.711-7.333c0-6.556-6.023-8.867-9.445-8.867-4.11 0-8.289 3.156-8.289 7.022 0 2.489 1.356 3.956 3.267 3.956 4.644 0 4.356-3.933 3.422-6.422 2.867 1.333 4.556 3.6 4.09 6.044 1.644.222 3.2 1 4.621 2.6-1.133 1.467-2.51 2.534-4.622 2.556.933 3.778-1.6 5.378-4.089 6.244.778-2.755 1.29-5.978-3.422-5.978-3.444 0-6.156-.6-7.733-2.844-.112 3-.4 14.778-.4 14.778-.178 4.444 5.933 4.311 9.822 3-1.489 5.111-4.489 7.889-11.489 7.178a5.49 5.49 0 0 1 3.511 5.355c0 4.178-3.378 8.778-5.578 10.156z"></path><path fill="#FFCC4D" d="M77.911 513.776c0-11.066-9.955-16.777-17.778-16.777-10.533 0-16.155 6.311-16.155 14.533 0 4.711.866 7.644 3.022 12.111l24.156 50.156a14.9 14.9 0 0 1 1.11 6.666c0 4.489-4.377 8.178-8.933 8.289-4.177.111-8.71-3.889-8.71-8.444 0-5.534 2.844-7.978 5.8-7.978 3.621 0 5.066 1.467 5.066 4.022 0 1.8-.867 2.556-2.089 2.556-3.111 0-2.244-4.178-2.244-4.178a2.88 2.88 0 0 0-1.96 1.467 2.89 2.89 0 0 0-.13 2.444 5.5 5.5 0 0 0-3 1.756c.8.852 1.851 1.428 3 1.644-.71 2.4.267 3.578 2.356 4.067a4.3 4.3 0 0 1-.289-2.578c3.311.933 8.378-.533 8.378-6.267 0-5.689-3.933-10.466-11.311-9.289 1.756-.8 2.644-2.511 2.8-4.466a9.4 9.4 0 0 1-2.8.622c.844-1.511 2.044-2.822 2-5.845-1.378.645-2.622 1.778-4.4 1.045 2.756-5.4-.622-12.822-9.244-14.622a17.78 17.78 0 0 1 4.689 11.644c0 12.889-3.578 15.022-3.578 23.956 0 3.733 1.933 7.8 5.733 10.533v-.156a7.64 7.64 0 0 0-5.044 3.6c5.755 1.623 14.11 1.6 18.6-.155a13.77 13.77 0 0 0 9.844-6.556 19.93 19.93 0 0 0 0-15.866c-3.422-7.134-19.556-41.334-24.578-52.111a17.1 17.1 0 0 1-1.71-7.334c0-6.555 6.021-8.866 9.444-8.866 4.11 0 8.289 3.155 8.289 7.022 0 2.489-1.356 3.955-3.267 3.955-4.645 0-4.356-3.933-3.445-6.422-2.866 1.333-4.555 3.6-4.089 6.045a7.48 7.48 0 0 0-4.622 2.6c1.134 1.466 2.511 2.533 4.622 2.555-.933 3.778 1.6 5.378 4.09 6.245-.778-2.756-1.29-5.978 3.444-5.978 3.444 0 6.155-.6 7.733-2.845l.4 14.778c.178 4.445-5.955 4.311-9.844 3 1.466 5.089 4.489 7.867 11.466 7.156a5.49 5.49 0 0 0-3.51 5.355c0 4.178 3.355 8.778 5.577 10.156zm-1.089 120.045s5.267 4.378 7.045 2.178c2.866-3.556-8.823-21.312-8.823-27.578 0-10.245 6.867-13.089 15.312-14.534 5.688-.977 14.933.423 14.933.423-1.756 2.333-2.867 3.066-5.8 3.2a12.33 12.33 0 0 1 6.578 11.133c0 8.8-3.645 12.444-3.645 22.422 0 5.534 4.534 12.556 4.534 12.556-8-.8-12-8.2-9.734-14.156a3.914 3.914 0 0 0-3.422 1.045c-.578-1.623.356-3.556 1.578-5.178-1-.511-1.734-.2-3.311.111.155-1.689 1.155-3.467 3.644-5.156-7.2 1.845-11.622-3.155-11.622-8.4 0-4 2.778-6.844 5.511-6.844.889 0 2.178.378 2.911.911.511-1.067.245-2.533-.289-3.622 2 .511 3.245 1.689 2.356 4.178a4.9 4.9 0 0 1 3.578 1.644 4.26 4.26 0 0 1-3.578 1.6c1.11 2.311-.134 3.622-1.934 4.645 0 0 1.156-4.645-1.8-4.645-1.333 0-2.533.467-2.533 2.4 0 1.667 1.489 4.022 4.911 3.889 3.422-.156 6.2-2.378 6.2-7.822 0-5.089-4.066-7.6-9.422-7.756-4.844-.155-8.489 2.467-8.489 7.467 0 6.622 9.6 21.778 9.6 27.689 0 4.444-3.978 6.911-7.889 6.911-5.066 0-9.333-5.022-9.333-5.022zm-1.11-314.334c0-11.111 9.955-16.799 17.777-16.799 10.533 0 16.155 6.311 16.155 14.555 0 4.689-.866 7.622-3.022 12.089L82.467 379.51a14.75 14.75 0 0 0-1.134 6.644c0 4.511 4.378 8.178 8.956 8.311 4.156.089 8.711-3.911 8.711-8.444 0-5.511-2.844-7.978-5.8-7.978-3.622 0-5.067 1.489-5.067 4.044 0 1.756.867 2.534 2.09 2.534 3.11 0 2.244-4.178 2.244-4.178a2.86 2.86 0 0 1 2.286 2.641c.025.418-.043.836-.197 1.226a5.55 5.55 0 0 1 3 1.778 5.67 5.67 0 0 1-3 1.666c.733 2.4-.245 3.556-2.334 4.067.362-.809.463-1.71.29-2.578-3.312.933-8.379-.533-8.379-6.267 0-5.666 3.934-10.444 11.334-9.266-1.778-.845-2.645-2.556-2.823-4.467 1.334.533 2.823.578 2.823.578-.867-1.511-2.067-2.822-2.023-5.822 1.378.622 2.645 1.777 4.4 1.044-2.755-5.422.623-12.867 9.245-14.622a17.86 17.86 0 0 0-4.689 11.644c0 12.867 3.6 15.022 3.6 23.978 0 3.733-1.933 7.778-5.733 10.533v-.155c2.444.667 4.044 1.889 5 3.578-5.756 1.644-14.134 1.6-18.6-.156a13.84 13.84 0 0 1-9.845-6.556 19.82 19.82 0 0 1 0-15.822c3.422-7.155 19.556-41.355 24.578-52.133a17.5 17.5 0 0 0 1.711-7.333c0-6.578-6.022-8.889-9.444-8.889-4.111 0-8.29 3.133-8.29 7 0 2.489 1.356 3.977 3.267 3.977 4.645 0 4.356-3.955 3.423-6.422 2.866 1.289 4.555 3.6 4.089 6.045 1.644.222 3.2.977 4.622 2.622-1.134 1.422-2.511 2.489-4.622 2.533.933 3.8-1.6 5.4-4.09 6.267.778-2.756 1.29-5.956-3.422-5.956-3.444 0-6.155-.6-7.733-2.822-.111 2.978-.4 14.778-.4 14.778-.178 4.422 5.933 4.311 9.822 2.978-1.444 5.111-4.444 7.866-11.444 7.155a5.51 5.51 0 0 1 3.511 5.378c0 4.156-3.378 8.778-5.578 10.133z"></path><path fill="#FFCC4D" d="M77.911 319.487c0-11.111-9.955-16.799-17.778-16.799-10.533 0-16.155 6.311-16.155 14.555 0 4.689.866 7.622 3.022 12.089l24.156 50.178c.844 1.755 1.11 3.733 1.11 6.644 0 4.511-4.377 8.178-8.933 8.311-4.177.089-8.71-3.911-8.71-8.444 0-5.511 2.844-7.978 5.8-7.978 3.621 0 5.066 1.489 5.066 4.044 0 1.756-.867 2.534-2.089 2.534-3.111 0-2.244-4.178-2.244-4.178a2.85 2.85 0 0 0-1.958 1.44 2.85 2.85 0 0 0-.131 2.427 5.55 5.55 0 0 0-3 1.778 5.67 5.67 0 0 0 3 1.666c-.711 2.4.244 3.556 2.333 4.067a4.27 4.27 0 0 1-.289-2.578c3.311.933 8.378-.533 8.378-6.267 0-5.666-3.933-10.444-11.311-9.266 1.755-.845 2.644-2.556 2.8-4.467-1.334.533-2.8.578-2.8.578.844-1.511 2.044-2.822 2-5.822-1.378.622-2.622 1.777-4.4 1.044 2.755-5.422-.622-12.867-9.245-14.622a17.86 17.86 0 0 1 4.69 11.644c0 12.867-3.578 15.022-3.578 23.978 0 3.733 1.933 7.778 5.733 10.533v-.155c-2.467.667-4.09 1.889-5 3.578 5.755 1.644 14.11 1.6 18.6-.156a13.84 13.84 0 0 0 9.844-6.556 19.82 19.82 0 0 0 0-15.822c-3.422-7.155-19.555-41.355-24.577-52.133a17.1 17.1 0 0 1-1.712-7.311c0-6.578 6.023-8.889 9.445-8.889 4.11 0 8.289 3.133 8.289 7 0 2.489-1.356 3.978-3.267 3.978-4.644 0-4.356-3.956-3.444-6.423-2.867 1.289-4.556 3.6-4.09 6.045a7.33 7.33 0 0 0-4.622 2.622c1.134 1.422 2.512 2.489 4.623 2.533-.934 3.8 1.6 5.401 4.089 6.267-.778-2.755-1.29-5.955 3.444-5.955 3.444 0 6.156-.6 7.733-2.823l.378 14.734c.178 4.422-5.955 4.311-9.844 2.977 1.466 5.112 4.489 7.867 11.466 7.178a5.51 5.51 0 0 0-3.51 5.378c0 4.156 3.355 8.778 5.577 10.133z"></path><path fill="#FFCC4D" d="M77.911 286.198c0 11.089-9.955 16.8-17.778 16.8-10.533 0-16.155-6.311-16.155-14.577 0-4.667.866-7.6 3.022-12.089l24.156-50.178a14.8 14.8 0 0 0 1.11-6.645c0-4.488-4.377-8.177-8.933-8.288-4.177-.089-8.71 3.888-8.71 8.444 0 5.533 2.844 7.978 5.8 7.978 3.621 0 5.066-1.489 5.066-4.045 0-1.777-.867-2.533-2.089-2.533-3.111 0-2.244 4.178-2.244 4.178a2.87 2.87 0 0 1-2.089-3.889 5.27 5.27 0 0 1-3-1.756 5.8 5.8 0 0 1 3-1.644c-.711-2.4.266-3.556 2.355-4.067a4.27 4.27 0 0 0-.289 2.578c3.312-.933 8.378.578 8.378 6.267 0 5.666-3.933 10.444-11.311 9.266 1.756.845 2.644 2.556 2.8 4.467a10.2 10.2 0 0 0-2.8-.578c.844 1.511 2.044 2.822 2 5.822-1.378-.622-2.622-1.777-4.4-1.044 2.756 5.422-.622 12.867-9.244 14.644a17.93 17.93 0 0 0 4.689-11.666c0-12.845-3.578-15.022-3.578-23.956 0-3.733 1.933-7.778 5.733-10.533v.155a7.645 7.645 0 0 1-5.022-3.622c5.755-1.622 14.11-1.6 18.6.178a13.78 13.78 0 0 1 9.844 6.578 19.8 19.8 0 0 1 0 15.822c-3.422 7.156-19.555 41.356-24.577 52.111a17 17 0 0 0-1.712 7.311c0 6.6 6.023 8.889 9.445 8.889 4.11 0 8.289-3.133 8.289-7.022 0-2.467-1.356-3.978-3.267-3.978-4.644 0-4.355 3.933-3.444 6.422-2.867-1.289-4.556-3.6-4.09-6.044a7.43 7.43 0 0 1-4.622-2.622c1.134-1.423 2.512-2.511 4.623-2.534-.934-3.777 1.6-5.4 4.089-6.289-.778 2.778-1.29 6 3.444 6 3.445 0 6.156.578 7.733 2.823l.4-14.8c.178-4.423-5.955-4.289-9.844-2.978 1.467-5.111 4.489-7.867 11.467-7.178a5.51 5.51 0 0 1-3.511-5.378c0-4.155 3.355-8.777 5.577-10.133zm0 194.311c0 11.089-9.955 16.778-17.778 16.778-10.533 0-16.155-6.289-16.155-14.533A24.45 24.45 0 0 1 47 470.665l24.156-50.178a14.8 14.8 0 0 0 1.11-6.644c0-4.511-4.377-8.178-8.933-8.289-4.177-.111-8.71 3.889-8.71 8.422 0 5.511 2.844 7.978 5.8 7.978 3.621 0 5.066-1.489 5.066-4.045 0-1.755-.867-2.511-2.089-2.511-3.111 0-2.244 4.178-2.244 4.178a2.888 2.888 0 0 1-2.089-3.889 5.3 5.3 0 0 1-3-1.778 5.65 5.65 0 0 1 3-1.644c-.711-2.422.244-3.578 2.333-4.089a4.27 4.27 0 0 0-.289 2.578c3.311-.933 8.378.555 8.378 6.267 0 5.666-3.933 10.422-11.311 9.266 1.755.867 2.644 2.556 2.8 4.489-1.334-.511-2.8-.6-2.8-.6.844 1.511 2.044 2.845 2 5.822-1.378-.622-2.622-1.777-4.4-1.044 2.755 5.4-.622 12.889-9.245 14.622a17.82 17.82 0 0 0 4.69-11.644c0-12.823-3.578-15.023-3.578-23.956 0-3.755 1.933-7.8 5.733-10.533v.133c-2.467-.644-4.09-1.867-5-3.578 5.755-1.622 14.11-1.6 18.6.178a13.84 13.84 0 0 1 9.844 6.556 19.82 19.82 0 0 1 0 15.822c-3.422 7.155-19.555 41.355-24.577 52.133a16.9 16.9 0 0 0-1.712 7.311c0 6.578 6.023 8.867 9.445 8.867 4.11 0 8.289-3.133 8.289-7.022 0-2.422-1.356-3.934-3.267-3.934-4.644 0-4.355 3.934-3.444 6.4-2.867-1.288-4.556-3.622-4.09-6.044a7.27 7.27 0 0 1-4.622-2.6 6.05 6.05 0 0 1 4.622-2.556c-.933-3.777 1.6-5.355 4.09-6.244-.778 2.778-1.29 5.978 3.444 5.978 3.445 0 6.156.578 7.733 2.844l.4-14.8c.178-4.4-5.955-4.289-9.844-2.978 1.467-5.088 4.489-7.844 11.467-7.155a5.51 5.51 0 0 1-3.511-5.378c0-4.155 3.355-8.755 5.577-10.133z"></path><path fill="#FFCC4D" d="M75.711 480.51c0 11.089 9.956 16.778 17.778 16.778 10.533 0 16.155-6.289 16.155-14.533a24.44 24.44 0 0 0-3.022-12.089l-24.155-50.178a14.75 14.75 0 0 1-1.134-6.644c0-4.512 4.378-8.178 8.956-8.289 4.156-.111 8.711 3.889 8.711 8.422 0 5.511-2.844 7.978-5.8 7.978-3.622 0-5.067-1.489-5.067-4.045 0-1.755.867-2.511 2.09-2.511 3.11 0 2.244 4.178 2.244 4.178a2.892 2.892 0 0 0 2.089-3.889 5.3 5.3 0 0 0 3-1.778 5.64 5.64 0 0 0-3-1.644c.733-2.422-.245-3.578-2.334-4.089.422.933.422 1.778.29 2.578-3.312-.934-8.379.555-8.379 6.266 0 5.667 3.934 10.423 11.334 9.267-1.778.867-2.645 2.556-2.823 4.489 1.334-.511 2.823-.6 2.823-.6-.867 1.511-2.067 2.844-2.022 5.822 1.377-.622 2.644-1.778 4.4-1.044-2.756 5.4.622 12.889 9.244 14.622a17.82 17.82 0 0 1-4.689-11.645c0-12.822 3.6-15.022 3.6-23.955a13.2 13.2 0 0 0-5.733-10.533v.133a7.58 7.58 0 0 0 5.044-3.6c-5.755-1.622-14.133-1.6-18.6.178a13.84 13.84 0 0 0-9.844 6.555 19.82 19.82 0 0 0 0 15.822c3.422 7.156 19.555 41.356 24.577 52.134 1.067 2.266 1.712 4.666 1.712 7.311 0 6.578-6.023 8.867-9.445 8.867-4.111 0-8.289-3.134-8.289-7.023 0-2.422 1.356-3.933 3.267-3.933 4.644 0 4.356 3.933 3.422 6.4 2.867-1.289 4.556-3.622 4.089-6.044a7.18 7.18 0 0 0 4.622-2.6 6.05 6.05 0 0 0-4.622-2.556c.933-3.778-1.6-5.356-4.089-6.244.778 2.777 1.289 5.977-3.422 5.977-3.444 0-6.156.578-7.733 2.845-.112-2.978-.4-14.8-.4-14.8-.178-4.4 5.933-4.289 9.822-2.978-1.49-5.089-4.49-7.844-11.49-7.156a5.51 5.51 0 0 0 3.512-5.377c0-4.156-3.378-8.756-5.578-10.134zm1.111-314.311s5.267-4.422 7.045-2.222c2.866 3.578-8.823 21.333-8.823 27.6 0 10.267 6.867 13.044 15.312 14.511 5.689 1 14.933-.4 14.933-.4-1.778-2.333-2.889-3.022-5.822-3.2a12.23 12.23 0 0 0 4.87-4.606 12.23 12.23 0 0 0 1.707-6.483c0-8.844-3.644-12.489-3.644-22.444 0-5.534 4.533-12.578 4.533-12.578-8 .822-12 8.222-9.733 14.155a3.84 3.84 0 0 1-3.4-1.044c-.578 1.645.356 3.556 1.578 5.2-1 .533-1.734.2-3.311-.133.155 1.711 1.155 3.489 3.644 5.178-7.222-1.867-11.644 3.155-11.644 8.422 0 3.978 2.778 6.8 5.51 6.8.89 0 2.179-.356 2.912-.911.511 1.089.244 2.555-.289 3.644 2-.511 3.245-1.711 2.356-4.178a5.18 5.18 0 0 0 3.577-1.644 4.36 4.36 0 0 0-3.6-1.622c1.111-2.311-.133-3.6-1.933-4.623 0 0 1.156 4.623-1.8 4.623-1.333 0-2.533-.445-2.533-2.378 0-1.689 1.489-4.045 4.91-3.889 3.423.133 6.2 2.356 6.2 7.844 0 5.045-4.066 7.534-9.421 7.712-4.823.133-8.467-2.489-8.467-7.467 0-6.645 9.6-21.756 9.6-27.689 0-4.444-3.978-6.933-7.889-6.933-5.067 0-9.333 5.022-9.333 5.022z"></path><path fill="#FFCC4D" d="M76.822 166.199s-5.266-4.422-7.044-2.222c-2.889 3.6 8.822 21.355 8.822 27.622 0 10.267-6.867 13.045-15.311 14.511-5.689.978-14.911-.422-14.911-.422 1.733-2.333 2.867-3.022 5.8-3.2a12.2 12.2 0 0 1-6.6-11.089c0-8.844 3.644-12.489 3.644-22.444 0-5.534-4.533-12.578-4.533-12.578 8 .822 12 8.222 9.733 14.155a3.93 3.93 0 0 0 3.422-1.044c.578 1.645-.333 3.556-1.577 5.2.977.533 1.71.2 3.31-.133-.155 1.711-1.177 3.489-3.644 5.178 7.2-1.867 11.623 3.155 11.623 8.422 0 3.978-2.778 6.8-5.511 6.8a5.5 5.5 0 0 1-2.912-.911c-.489 1.111-.222 2.555.29 3.644-1.979-.511-3.223-1.711-2.334-4.156a5.1 5.1 0 0 1-3.578-1.644 4.3 4.3 0 0 1 1.59-1.255 4.3 4.3 0 0 1 1.988-.389c-1.111-2.311.133-3.6 1.933-4.623 0 0-1.155 4.623 1.8 4.623 1.334 0 2.534-.445 2.534-2.378 0-1.689-1.49-4.045-4.911-3.889-3.445.133-6.223 2.355-6.223 7.822 0 5.045 4.067 7.533 9.423 7.711 4.844.134 8.488-2.466 8.488-7.466 0-6.645-9.6-21.756-9.6-27.689 0-4.445 3.978-6.934 7.89-6.934 5.066 0 9.333 5.023 9.333 5.023zm-1.11 120c0 11.089 9.955 16.8 17.777 16.8 10.533 0 16.156-6.311 16.156-14.578 0-4.666-.867-7.6-3.023-12.088l-24.155-50.178a14.9 14.9 0 0 1-1.111-6.623c0-4.488 4.377-8.177 8.955-8.288 4.156-.089 8.711 3.888 8.711 8.444 0 5.533-2.844 7.978-5.8 7.978-3.622 0-5.066-1.489-5.066-4.045 0-1.777.866-2.533 2.088-2.533 3.112 0 2.245 4.178 2.245 4.178a2.892 2.892 0 0 0 2.089-3.889 5.38 5.38 0 0 0 2.978-1.778 5.78 5.78 0 0 0-3.023-1.644c.734-2.4-.244-3.556-2.333-4.067.422.933.422 1.778.289 2.578-3.311-.933-8.378.555-8.378 6.266 0 5.667 3.933 10.445 11.334 9.267-1.778.845-2.645 2.556-2.823 4.467.91-.324 1.86-.518 2.823-.578-.867 1.511-2.067 2.822-2.023 5.822 1.378-.622 2.645-1.778 4.4-1.044-2.755 5.422.623 12.867 9.245 14.644a17.93 17.93 0 0 1-4.689-11.666c0-12.845 3.6-15.023 3.6-23.956a13.27 13.27 0 0 0-5.733-10.533v.155a7.75 7.75 0 0 0 5.044-3.622c-5.778-1.6-14.156-1.578-18.645.2a13.68 13.68 0 0 0-9.822 6.556 19.8 19.8 0 0 0 0 15.822c3.422 7.155 19.556 41.355 24.578 52.111a17.5 17.5 0 0 1 1.711 7.311c0 6.6-6.022 8.889-9.444 8.889-4.111 0-8.29-3.133-8.29-7.022 0-2.467 1.356-3.978 3.267-3.978 4.645 0 4.356 3.933 3.423 6.422 2.866-1.289 4.555-3.6 4.089-6.044a7.32 7.32 0 0 0 4.622-2.623c-1.134-1.422-2.511-2.511-4.622-2.533.933-3.778-1.6-5.4-4.09-6.289.778 2.778 1.29 6-3.422 6-3.444 0-6.155.578-7.733 2.822-.11-2.977-.4-14.8-.4-14.8-.178-4.422 5.934-4.288 9.822-2.977-1.444-5.067-4.444-7.823-11.444-7.134a5.51 5.51 0 0 0 3.511-5.377c0-4.156-3.378-8.778-5.578-10.134z"></path></g><defs><clipPath id="kz_svg__a"><path fill="#fff" d="M0 0h800v800H0z"></path></clipPath></defs></svg>