<svg xmlns="http://www.w3.org/2000/svg" width="40" height="40" fill="none" data-sentry-element="FireIcon" data-sentry-source-file="index.tsx"><path fill="url(#fire__icon_svg__a)" d="m20 23.167-3.55 3.483c-.934.933-1.45 2.15-1.45 3.45 0 2.7 2.25 4.9 5 4.9s5-2.2 5-4.9c0-1.3-.517-2.533-1.45-3.45z"></path><path fill="url(#fire__icon_svg__b)" d="m26.666 11.667-.733.916C23.966 15.033 20 13.65 20 10.5V5S6.666 11.667 6.666 23.333c0 4.867 2.6 9.117 6.484 11.434a8.06 8.06 0 0 1-1.484-4.667c0-2.2.867-4.267 2.45-5.833L20 18.5l5.883 5.783a8.1 8.1 0 0 1 2.45 5.834c0 1.7-.517 3.266-1.417 4.583 3.15-1.917 5.484-5.1 6.184-8.833 1.1-5.917-1.784-11.5-6.434-14.2"></path><defs><linearGradient id="fire__icon_svg__a" x1="20" x2="20" y1="5" y2="35" gradientUnits="userSpaceOnUse"><stop offset="0.9" stop-color="#980F0F"></stop><stop offset="1" stop-color="#320505"></stop></linearGradient><linearGradient id="fire__icon_svg__b" x1="20" x2="20" y1="5" y2="35" gradientUnits="userSpaceOnUse"><stop offset="0.5" stop-color="#CE0C0C"></stop><stop offset="1" stop-color="#680606"></stop></linearGradient></defs></svg>