<svg xmlns="http://www.w3.org/2000/svg" width="30" height="30" fill="none" class="size-6"><rect width="30" height="30" fill="#3B3B3B" fill-opacity="0.7" rx="5"></rect><path fill="#fff" d="M13.08 17.76q0-.94.5-1.58.5-.66 1.56-1.22l1.52-.82a3.4 3.4 0 0 0 1-.8q.38-.48.38-1.04 0-1.12-.92-1.78-.9-.66-2.5-.66-1.58 0-2.58.74-1 .72-1.16 2H8.36q.18-2.3 1.82-3.58 1.66-1.3 4.44-1.3 2.8 0 4.36 1.18 1.58 1.18 1.58 3.26 0 1-.6 1.88t-1.74 1.48l-1.62.86q-.58.32-.9.68-.3.34-.3.88v.64h-2.22a2.6 2.6 0 0 1-.08-.42 4 4 0 0 1-.02-.4m1.16 5.4q-.7 0-1.16-.42-.46-.44-.46-1.12t.46-1.1q.46-.44 1.16-.44.72 0 1.16.44.46.42.46 1.1t-.46 1.12q-.44.42-1.16.42"></path></svg>