<svg xmlns="http://www.w3.org/2000/svg" width="40" height="40" fill="none" data-sentry-element="ServicesIcon" data-sentry-source-file="index.tsx"><path fill="url(#servicess_svg__a)" d="m29.318 22.892-2.227-1.286a9.9 9.9 0 0 0 0-3.424l2.227-1.286c.621-.358.834-1.152.475-1.773l-2.022-3.504a1.3 1.3 0 0 0-1.774-.475l-2.229 1.287a9.7 9.7 0 0 0-2.963-1.714v-2.57c0-.718-.581-1.3-1.298-1.3H15.46c-.717 0-1.299.582-1.299 1.3v2.57a9.7 9.7 0 0 0-2.962 1.714l-2.23-1.287a1.3 1.3 0 0 0-1.773.475l-2.023 3.504a1.297 1.297 0 0 0 .476 1.773l2.226 1.286a9.9 9.9 0 0 0 0 3.424L5.65 22.892a1.297 1.297 0 0 0-.476 1.773l2.023 3.504a1.3 1.3 0 0 0 1.773.475l2.23-1.287a9.7 9.7 0 0 0 2.963 1.714v2.57c0 .718.581 1.3 1.298 1.3h4.046c.717 0 1.298-.582 1.298-1.3v-2.57a9.7 9.7 0 0 0 2.963-1.714l2.23 1.287c.62.358 1.414.146 1.773-.475l2.022-3.504a1.297 1.297 0 0 0-.475-1.773M17.484 24.95a5.057 5.057 0 1 1 0-10.113 5.057 5.057 0 0 1 0 10.113"></path><path fill="url(#servicess_svg__b)" d="M17.484 11.337a8.557 8.557 0 0 0-8.557 8.557 8.557 8.557 0 0 0 8.557 8.557 8.557 8.557 0 0 0 8.557-8.557 8.557 8.557 0 0 0-8.557-8.557m0 13.267a4.71 4.71 0 1 1 0-9.42 4.71 4.71 0 0 1 0 9.42"></path><path fill="url(#servicess_svg__c)" d="m7.877 21.606-2.228 1.286a1.3 1.3 0 0 0-.475 1.773l2.023 3.504c.359.62 1.153.834 1.773.475l2.23-1.287a9.75 9.75 0 0 1-3.323-5.751"></path><path fill="url(#servicess_svg__d)" d="m7.877 21.606-2.228 1.286a1.3 1.3 0 0 0-.475 1.773l2.023 3.504c.359.62 1.153.834 1.773.475l2.23-1.287a9.75 9.75 0 0 1-3.323-5.751"></path><path fill="url(#servicess_svg__e)" d="m29.794 15.123-2.023-3.504a1.3 1.3 0 0 0-1.774-.475l-2.229 1.287a9.75 9.75 0 0 1 3.323 5.751l2.227-1.286c.621-.358.834-1.152.476-1.773"></path><path fill="url(#servicess_svg__f)" d="M17.484 10.137c1.166 0 2.284.205 3.32.58v-2.57c0-.718-.58-1.3-1.297-1.3H15.46c-.717 0-1.298.582-1.298 1.3v2.57a9.7 9.7 0 0 1 3.32-.58"></path><path fill="url(#servicess_svg__g)" d="M17.484 29.651a9.7 9.7 0 0 1-3.321-.58v2.57c0 .718.58 1.299 1.298 1.299h4.046c.717 0 1.298-.581 1.298-1.298V29.07a9.7 9.7 0 0 1-3.321.58"></path><path fill="url(#servicess_svg__h)" d="M17.484 29.651a9.7 9.7 0 0 1-3.321-.58v2.57c0 .718.58 1.299 1.298 1.299h4.046c.717 0 1.298-.581 1.298-1.298V29.07a9.7 9.7 0 0 1-3.321.58"></path><path fill="url(#servicess_svg__i)" d="m11.2 12.43-2.23-1.286a1.3 1.3 0 0 0-1.773.475l-2.023 3.504a1.3 1.3 0 0 0 .475 1.773l2.228 1.286a9.75 9.75 0 0 1 3.323-5.751"></path><path fill="url(#servicess_svg__j)" d="m29.319 22.892-2.228-1.286a9.75 9.75 0 0 1-3.323 5.751l2.23 1.287c.62.359 1.414.146 1.773-.475l2.023-3.504a1.3 1.3 0 0 0-.476-1.773"></path><path fill="url(#servicess_svg__k)" d="m29.319 22.892-2.228-1.286a9.75 9.75 0 0 1-3.323 5.751l2.23 1.287c.62.359 1.414.146 1.773-.475l2.023-3.504a1.3 1.3 0 0 0-.476-1.773"></path><path fill="url(#servicess_svg__l)" d="M25.997 28.644c.621.358 1.415.146 1.774-.475l2.022-3.504a1.297 1.297 0 0 0-.475-1.773l-2.227-1.286q.107-.603.138-1.228l-5.115-5.114-1.055 1.055a5.057 5.057 0 0 1-7.15 7.15l-1.055 1.055 7.773 7.774c.113-.193.178-.417.178-.656V29.07a9.8 9.8 0 0 0 2.963-1.714z"></path><path fill="url(#servicess_svg__m)" d="M25.202 26.244c0 .995.42 1.892 1.092 2.524a1.3 1.3 0 0 0 1.477-.599l2.022-3.504a1.297 1.297 0 0 0-.475-1.773l-.128-.074a3.465 3.465 0 0 0-3.988 3.426"></path><path fill="url(#servicess_svg__n)" d="M25.202 26.244c0 .995.42 1.892 1.092 2.524a1.3 1.3 0 0 0 1.477-.599l2.022-3.504a1.297 1.297 0 0 0-.475-1.773l-.128-.074a3.465 3.465 0 0 0-3.988 3.426"></path><path fill="url(#servicess_svg__o)" d="M12.854 15.264a6.548 6.548 0 1 0 9.26 9.26 6.548 6.548 0 0 0-9.26-9.26m7.179 7.179a3.605 3.605 0 1 1-5.098-5.099 3.605 3.605 0 0 1 5.098 5.099"></path><path fill="url(#servicess_svg__p)" d="M20.033 22.443a3.605 3.605 0 0 1-6.006-3.571h-3.011a6.548 6.548 0 1 0 12.936 0h-3.01a3.6 3.6 0 0 1-.91 3.57"></path><path fill="url(#servicess_svg__q)" d="M16.248 13.463v3.045a3.605 3.605 0 1 1 0 6.772v3.045a6.548 6.548 0 1 0 0-12.862"></path><path fill="url(#servicess_svg__r)" d="m39.237 32.733-1.212-.7a5.4 5.4 0 0 0 0-1.864l1.212-.7a.706.706 0 0 0 .258-.965l-1.1-1.907a.707.707 0 0 0-.966-.259l-1.213.7a5.3 5.3 0 0 0-1.613-.932v-1.4a.707.707 0 0 0-.706-.706h-2.203a.707.707 0 0 0-.706.707v1.399a5.3 5.3 0 0 0-1.613.933l-1.213-.7a.707.707 0 0 0-.966.258l-1.1 1.907a.706.706 0 0 0 .258.965l1.212.7a5.4 5.4 0 0 0 0 1.863l-1.212.7a.706.706 0 0 0-.258.965l1.1 1.908a.707.707 0 0 0 .966.259l1.213-.701c.474.4 1.018.718 1.613.933v1.399c0 .39.316.707.706.707h2.203c.39 0 .706-.317.706-.707v-1.4a5.3 5.3 0 0 0 1.613-.932l1.213.7c.338.195.77.08.965-.258l1.101-1.908a.706.706 0 0 0-.258-.965m-6.442 1.12a2.752 2.752 0 1 1 0-5.505 2.752 2.752 0 0 1 0 5.505"></path><path fill="url(#servicess_svg__s)" d="M32.795 27.174a3.927 3.927 0 1 0 0 7.853 3.927 3.927 0 0 0 0-7.853m0 6.49a2.564 2.564 0 1 1 0-5.127 2.564 2.564 0 0 1 0 5.128"></path><path fill="url(#servicess_svg__t)" d="m27.566 32.033-1.212.7a.707.707 0 0 0-.258.965l1.1 1.907a.707.707 0 0 0 .966.258l1.213-.7a5.3 5.3 0 0 1-1.809-3.13"></path><path fill="url(#servicess_svg__u)" d="m27.566 32.033-1.212.7a.707.707 0 0 0-.258.965l1.1 1.907a.707.707 0 0 0 .966.258l1.213-.7a5.3 5.3 0 0 1-1.809-3.13"></path><path fill="url(#servicess_svg__v)" d="m39.495 28.504-1.1-1.907a.707.707 0 0 0-.966-.259l-1.213.7a5.3 5.3 0 0 1 1.808 3.131l1.213-.7a.707.707 0 0 0 .258-.965"></path><path fill="url(#servicess_svg__w)" d="M32.795 25.79a5.3 5.3 0 0 1 1.808.316v-1.4a.707.707 0 0 0-.707-.706h-2.202a.707.707 0 0 0-.706.707v1.399a5.3 5.3 0 0 1 1.807-.316"></path><path fill="url(#servicess_svg__x)" d="M32.795 36.411a5.3 5.3 0 0 1-1.808-.316v1.4c0 .39.317.706.707.706h2.202c.39 0 .707-.316.707-.706v-1.4a5.3 5.3 0 0 1-1.808.316"></path><path fill="url(#servicess_svg__y)" d="M32.795 36.411a5.3 5.3 0 0 1-1.808-.316v1.4c0 .39.317.706.707.706h2.202c.39 0 .707-.316.707-.706v-1.4a5.3 5.3 0 0 1-1.808.316"></path><path fill="url(#servicess_svg__z)" d="m29.375 27.039-1.213-.7a.707.707 0 0 0-.966.258l-1.1 1.907a.707.707 0 0 0 .258.965l1.212.7a5.3 5.3 0 0 1 1.809-3.13"></path><path fill="url(#servicess_svg__A)" d="m39.237 32.732-1.212-.7a5.3 5.3 0 0 1-1.809 3.13l1.213.701c.338.195.77.08.965-.258l1.102-1.907a.707.707 0 0 0-.26-.966"></path><path fill="url(#servicess_svg__B)" d="m39.237 32.732-1.212-.7a5.3 5.3 0 0 1-1.809 3.13l1.213.701c.338.195.77.08.965-.258l1.102-1.907a.707.707 0 0 0-.26-.966"></path><defs><linearGradient id="servicess_svg__a" x1="10.708" x2="26.098" y1="13.118" y2="28.508" gradientUnits="userSpaceOnUse"><stop stop-color="#F5FBFF"></stop><stop offset="1" stop-color="#DBD5EF"></stop></linearGradient><linearGradient id="servicess_svg__b" x1="23.661" x2="10.998" y1="26.071" y2="13.408" gradientUnits="userSpaceOnUse"><stop stop-color="#F5FBFF"></stop><stop offset="1" stop-color="#DBD5EF"></stop></linearGradient><linearGradient id="servicess_svg__c" x1="8.3" x2="9.407" y1="26.244" y2="28.49" gradientUnits="userSpaceOnUse"><stop stop-color="#DBD5EF" stop-opacity="0"></stop><stop offset="0.285" stop-color="#D9D2EE" stop-opacity="0.285"></stop><stop offset="0.474" stop-color="#D4C9E9" stop-opacity="0.474"></stop><stop offset="0.635" stop-color="#CBBAE2" stop-opacity="0.635"></stop><stop offset="0.779" stop-color="#BFA5D7" stop-opacity="0.78"></stop><stop offset="0.913" stop-color="#AF8ACA" stop-opacity="0.913"></stop><stop offset="1" stop-color="#A274BF"></stop></linearGradient><linearGradient id="servicess_svg__d" x1="8.256" x2="6.137" y1="25.26" y2="27.284" gradientUnits="userSpaceOnUse"><stop stop-color="#DBD5EF" stop-opacity="0"></stop><stop offset="0.285" stop-color="#D9D2EE" stop-opacity="0.285"></stop><stop offset="0.474" stop-color="#D4C9E9" stop-opacity="0.474"></stop><stop offset="0.635" stop-color="#CBBAE2" stop-opacity="0.635"></stop><stop offset="0.779" stop-color="#BFA5D7" stop-opacity="0.78"></stop><stop offset="0.913" stop-color="#AF8ACA" stop-opacity="0.913"></stop><stop offset="1" stop-color="#A274BF"></stop></linearGradient><linearGradient id="servicess_svg__e" x1="27.324" x2="28.747" y1="14.742" y2="17.272" gradientUnits="userSpaceOnUse"><stop stop-color="#DBD5EF" stop-opacity="0"></stop><stop offset="0.285" stop-color="#D9D2EE" stop-opacity="0.285"></stop><stop offset="0.474" stop-color="#D4C9E9" stop-opacity="0.474"></stop><stop offset="0.635" stop-color="#CBBAE2" stop-opacity="0.635"></stop><stop offset="0.779" stop-color="#BFA5D7" stop-opacity="0.78"></stop><stop offset="0.913" stop-color="#AF8ACA" stop-opacity="0.913"></stop><stop offset="1" stop-color="#A274BF"></stop></linearGradient><linearGradient id="servicess_svg__f" x1="17.956" x2="21.058" y1="8.782" y2="8.782" gradientUnits="userSpaceOnUse"><stop stop-color="#DBD5EF" stop-opacity="0"></stop><stop offset="0.285" stop-color="#D9D2EE" stop-opacity="0.285"></stop><stop offset="0.474" stop-color="#D4C9E9" stop-opacity="0.474"></stop><stop offset="0.635" stop-color="#CBBAE2" stop-opacity="0.635"></stop><stop offset="0.779" stop-color="#BFA5D7" stop-opacity="0.78"></stop><stop offset="0.913" stop-color="#AF8ACA" stop-opacity="0.913"></stop><stop offset="1" stop-color="#A274BF"></stop></linearGradient><linearGradient id="servicess_svg__g" x1="17.956" x2="21.058" y1="31.005" y2="31.005" gradientUnits="userSpaceOnUse"><stop stop-color="#DBD5EF" stop-opacity="0"></stop><stop offset="0.285" stop-color="#D9D2EE" stop-opacity="0.285"></stop><stop offset="0.474" stop-color="#D4C9E9" stop-opacity="0.474"></stop><stop offset="0.635" stop-color="#CBBAE2" stop-opacity="0.635"></stop><stop offset="0.779" stop-color="#BFA5D7" stop-opacity="0.78"></stop><stop offset="0.913" stop-color="#AF8ACA" stop-opacity="0.913"></stop><stop offset="1" stop-color="#A274BF"></stop></linearGradient><linearGradient id="servicess_svg__h" x1="17.484" x2="17.484" y1="30.161" y2="32.956" gradientUnits="userSpaceOnUse"><stop stop-color="#DBD5EF" stop-opacity="0"></stop><stop offset="0.285" stop-color="#D9D2EE" stop-opacity="0.285"></stop><stop offset="0.474" stop-color="#D4C9E9" stop-opacity="0.474"></stop><stop offset="0.635" stop-color="#CBBAE2" stop-opacity="0.635"></stop><stop offset="0.779" stop-color="#BFA5D7" stop-opacity="0.78"></stop><stop offset="0.913" stop-color="#AF8ACA" stop-opacity="0.913"></stop><stop offset="1" stop-color="#A274BF"></stop></linearGradient><linearGradient id="servicess_svg__i" x1="7.666" x2="6.029" y1="14.69" y2="17.56" gradientUnits="userSpaceOnUse"><stop stop-color="#DBD5EF" stop-opacity="0"></stop><stop offset="0.285" stop-color="#D9D2EE" stop-opacity="0.285"></stop><stop offset="0.474" stop-color="#D4C9E9" stop-opacity="0.474"></stop><stop offset="0.635" stop-color="#CBBAE2" stop-opacity="0.635"></stop><stop offset="0.779" stop-color="#BFA5D7" stop-opacity="0.78"></stop><stop offset="0.913" stop-color="#AF8ACA" stop-opacity="0.913"></stop><stop offset="1" stop-color="#A274BF"></stop></linearGradient><linearGradient id="servicess_svg__j" x1="26.469" x2="28.865" y1="25.078" y2="26.549" gradientUnits="userSpaceOnUse"><stop stop-color="#DBD5EF" stop-opacity="0"></stop><stop offset="0.285" stop-color="#D9D2EE" stop-opacity="0.285"></stop><stop offset="0.474" stop-color="#D4C9E9" stop-opacity="0.474"></stop><stop offset="0.635" stop-color="#CBBAE2" stop-opacity="0.635"></stop><stop offset="0.779" stop-color="#BFA5D7" stop-opacity="0.78"></stop><stop offset="0.913" stop-color="#AF8ACA" stop-opacity="0.913"></stop><stop offset="1" stop-color="#A274BF"></stop></linearGradient><linearGradient id="servicess_svg__k" x1="26.628" x2="25.465" y1="26.29" y2="28.401" gradientUnits="userSpaceOnUse"><stop stop-color="#DBD5EF" stop-opacity="0"></stop><stop offset="0.285" stop-color="#D9D2EE" stop-opacity="0.285"></stop><stop offset="0.474" stop-color="#D4C9E9" stop-opacity="0.474"></stop><stop offset="0.635" stop-color="#CBBAE2" stop-opacity="0.635"></stop><stop offset="0.779" stop-color="#BFA5D7" stop-opacity="0.78"></stop><stop offset="0.913" stop-color="#AF8ACA" stop-opacity="0.913"></stop><stop offset="1" stop-color="#A274BF"></stop></linearGradient><linearGradient id="servicess_svg__l" x1="30.625" x2="16.537" y1="33.035" y2="18.947" gradientUnits="userSpaceOnUse"><stop stop-color="#DBD5EF" stop-opacity="0"></stop><stop offset="0.285" stop-color="#D9D2EE" stop-opacity="0.285"></stop><stop offset="0.474" stop-color="#D4C9E9" stop-opacity="0.474"></stop><stop offset="0.635" stop-color="#CBBAE2" stop-opacity="0.635"></stop><stop offset="0.779" stop-color="#BFA5D7" stop-opacity="0.78"></stop><stop offset="0.913" stop-color="#AF8ACA" stop-opacity="0.913"></stop><stop offset="1" stop-color="#A274BF"></stop></linearGradient><linearGradient id="servicess_svg__m" x1="28.262" x2="25.471" y1="25.655" y2="26.213" gradientUnits="userSpaceOnUse"><stop stop-color="#DBD5EF" stop-opacity="0"></stop><stop offset="0.285" stop-color="#D9D2EE" stop-opacity="0.285"></stop><stop offset="0.474" stop-color="#D4C9E9" stop-opacity="0.474"></stop><stop offset="0.635" stop-color="#CBBAE2" stop-opacity="0.635"></stop><stop offset="0.779" stop-color="#BFA5D7" stop-opacity="0.78"></stop><stop offset="0.913" stop-color="#AF8ACA" stop-opacity="0.913"></stop><stop offset="1" stop-color="#A274BF"></stop></linearGradient><linearGradient id="servicess_svg__n" x1="28.723" x2="26.275" y1="26.76" y2="24.183" gradientUnits="userSpaceOnUse"><stop stop-color="#DBD5EF" stop-opacity="0"></stop><stop offset="0.285" stop-color="#D9D2EE" stop-opacity="0.285"></stop><stop offset="0.474" stop-color="#D4C9E9" stop-opacity="0.474"></stop><stop offset="0.635" stop-color="#CBBAE2" stop-opacity="0.635"></stop><stop offset="0.779" stop-color="#BFA5D7" stop-opacity="0.78"></stop><stop offset="0.913" stop-color="#AF8ACA" stop-opacity="0.913"></stop><stop offset="1" stop-color="#A274BF"></stop></linearGradient><linearGradient id="servicess_svg__o" x1="14.129" x2="20.998" y1="16.539" y2="23.408" gradientUnits="userSpaceOnUse"><stop stop-color="#F5FBFF"></stop><stop offset="1" stop-color="#DBD5EF"></stop></linearGradient><linearGradient id="servicess_svg__p" x1="17.863" x2="18.653" y1="22.088" y2="26.665" gradientUnits="userSpaceOnUse"><stop stop-color="#DBD5EF" stop-opacity="0"></stop><stop offset="0.285" stop-color="#D9D2EE" stop-opacity="0.285"></stop><stop offset="0.474" stop-color="#D4C9E9" stop-opacity="0.474"></stop><stop offset="0.635" stop-color="#CBBAE2" stop-opacity="0.635"></stop><stop offset="0.779" stop-color="#BFA5D7" stop-opacity="0.78"></stop><stop offset="0.913" stop-color="#AF8ACA" stop-opacity="0.913"></stop><stop offset="1" stop-color="#A274BF"></stop></linearGradient><linearGradient id="servicess_svg__q" x1="18.986" x2="22.897" y1="20.578" y2="23.074" gradientUnits="userSpaceOnUse"><stop stop-color="#DBD5EF" stop-opacity="0"></stop><stop offset="0.285" stop-color="#D9D2EE" stop-opacity="0.285"></stop><stop offset="0.474" stop-color="#D4C9E9" stop-opacity="0.474"></stop><stop offset="0.635" stop-color="#CBBAE2" stop-opacity="0.635"></stop><stop offset="0.779" stop-color="#BFA5D7" stop-opacity="0.78"></stop><stop offset="0.913" stop-color="#AF8ACA" stop-opacity="0.913"></stop><stop offset="1" stop-color="#A274BF"></stop></linearGradient><linearGradient id="servicess_svg__r" x1="28.918" x2="37.126" y1="27.223" y2="35.431" gradientUnits="userSpaceOnUse"><stop stop-color="#9CC20F"></stop><stop offset="1" stop-color="#C8FF00"></stop></linearGradient><linearGradient id="servicess_svg__s" x1="35.63" x2="29.818" y1="33.935" y2="28.124" gradientUnits="userSpaceOnUse"><stop stop-color="#8AA721"></stop><stop offset="1" stop-color="#BBED07"></stop></linearGradient><linearGradient id="servicess_svg__t" x1="27.797" x2="28.399" y1="34.557" y2="35.779" gradientUnits="userSpaceOnUse"><stop stop-color="#C8FF00" stop-opacity="0"></stop><stop offset="0.276" stop-color="#C8FF00" stop-opacity="0.276"></stop><stop offset="0.563" stop-color="#C8FF00" stop-opacity="0.563"></stop><stop offset="0.854" stop-color="#C8FF00" stop-opacity="0.854"></stop><stop offset="1" stop-color="#C8FF00"></stop></linearGradient><linearGradient id="servicess_svg__u" x1="27.773" x2="26.619" y1="34.021" y2="35.123" gradientUnits="userSpaceOnUse"><stop stop-color="#C8FF00" stop-opacity="0"></stop><stop offset="0.276" stop-color="#C8FF00" stop-opacity="0.276"></stop><stop offset="0.563" stop-color="#C8FF00" stop-opacity="0.563"></stop><stop offset="0.854" stop-color="#C8FF00" stop-opacity="0.854"></stop><stop offset="1" stop-color="#C8FF00"></stop></linearGradient><linearGradient id="servicess_svg__v" x1="38.151" x2="38.926" y1="28.297" y2="29.674" gradientUnits="userSpaceOnUse"><stop stop-color="#9CC20F"></stop><stop offset="0.276" stop-color="#9CC20F"></stop><stop offset="0.563" stop-color="#9CC20F"></stop><stop offset="0.854" stop-color="#9CC20F"></stop><stop offset="1" stop-color="#9CC20F"></stop></linearGradient><linearGradient id="servicess_svg__w" x1="33.052" x2="34.741" y1="25.053" y2="25.053" gradientUnits="userSpaceOnUse"><stop stop-color="#C8FF00" stop-opacity="0"></stop><stop offset="0.276" stop-color="#C8FF00" stop-opacity="0.276"></stop><stop offset="0.563" stop-color="#C8FF00" stop-opacity="0.563"></stop><stop offset="0.854" stop-color="#C8FF00" stop-opacity="0.854"></stop><stop offset="1" stop-color="#C8FF00"></stop></linearGradient><linearGradient id="servicess_svg__x" x1="33.052" x2="34.741" y1="37.148" y2="37.148" gradientUnits="userSpaceOnUse"><stop stop-color="#C8FF00" stop-opacity="0"></stop><stop offset="0.276" stop-color="#C8FF00"></stop><stop offset="0.563" stop-color="#C8FF00" stop-opacity="0.563"></stop><stop offset="0.854" stop-color="#C8FF00" stop-opacity="0.854"></stop><stop offset="1" stop-color="#C8FF00"></stop></linearGradient><linearGradient id="servicess_svg__y" x1="32.795" x2="32.795" y1="36.689" y2="38.21" gradientUnits="userSpaceOnUse"><stop stop-color="#9CC20F"></stop><stop offset="0.276" stop-color="#9CC20F" stop-opacity="0.276"></stop><stop offset="0.563" stop-color="#9CC20F" stop-opacity="0.563"></stop><stop offset="0.854" stop-color="#9CC20F"></stop><stop offset="1" stop-color="#9CC20F"></stop></linearGradient><linearGradient id="servicess_svg__z" x1="27.452" x2="26.561" y1="28.268" y2="29.831" gradientUnits="userSpaceOnUse"><stop stop-color="#C8FF00" stop-opacity="0"></stop><stop offset="0.276" stop-color="#C8FF00" stop-opacity="0.276"></stop><stop offset="0.563" stop-color="#C8FF00" stop-opacity="0.563"></stop><stop offset="0.854" stop-color="#C8FF00" stop-opacity="0.854"></stop><stop offset="1" stop-color="#C8FF00"></stop></linearGradient><linearGradient id="servicess_svg__A" x1="37.686" x2="38.99" y1="33.923" y2="34.723" gradientUnits="userSpaceOnUse"><stop stop-color="#C8FF00" stop-opacity="0"></stop><stop offset="0.276" stop-color="#C8FF00" stop-opacity="0.276"></stop><stop offset="0.563" stop-color="#C8FF00" stop-opacity="0.563"></stop><stop offset="0.854" stop-color="#C8FF00" stop-opacity="0.854"></stop><stop offset="1" stop-color="#C8FF00"></stop></linearGradient><linearGradient id="servicess_svg__B" x1="37.772" x2="37.14" y1="34.582" y2="35.731" gradientUnits="userSpaceOnUse"><stop stop-color="#9CC20F" stop-opacity="0"></stop><stop offset="0.276" stop-color="#9CC20F" stop-opacity="0.276"></stop><stop offset="0.563" stop-color="#9CC20F" stop-opacity="0.563"></stop><stop offset="0.854" stop-color="#9CC20F" stop-opacity="0.854"></stop><stop offset="1" stop-color="#9CC20F"></stop></linearGradient></defs></svg>