<svg xmlns="http://www.w3.org/2000/svg" width="43" height="44" fill="none" data-sentry-element="SteamIcon" data-sentry-source-file="index.tsx"><g clip-path="url(#steam-logo_svg__a)"><path fill="url(#steam-logo_svg__b)" stroke="#4D4D4D" d="M1.714 28.078c.507-1.843.646-3.181.464-4.366-.18-1.168-.668-2.138-1.32-3.24C1.643 9.77 10.573 1.33 21.474 1.33c11.415 0 20.67 9.254 20.67 20.67 0 11.414-9.255 20.669-20.67 20.669-9.297 0-17.162-6.144-19.759-14.59Z"></path><path fill="#fff" d="m20.382 16.696.002.105-5.18 7.525a5.8 5.8 0 0 0-3.47.967L.359 20.605s-.264 4.33.833 7.557l8.042 3.318a5.85 5.85 0 0 0 3.467 4.148 5.875 5.875 0 0 0 8.129-5.582l7.404-5.296.182.004c4.436 0 8.041-3.616 8.041-8.058 0-4.441-3.598-8.044-8.04-8.053-4.434 0-8.042 3.612-8.042 8.053zm-1.244 15.249a4.53 4.53 0 0 1-5.923 2.443 4.53 4.53 0 0 1-2.33-2.224l2.617 1.085a3.334 3.334 0 0 0 4.36-1.799 3.34 3.34 0 0 0-1.796-4.366l-2.712-1.122a4.5 4.5 0 0 1 3.34.051 4.47 4.47 0 0 1 2.446 2.461 4.51 4.51 0 0 1-.007 3.47m9.29-9.88a5.37 5.37 0 0 1-5.356-5.366 5.37 5.37 0 0 1 5.357-5.366 5.37 5.37 0 0 1 5.358 5.366 5.37 5.37 0 0 1-5.358 5.366M24.41 16.69a4.03 4.03 0 0 1 4.023-4.032 4.031 4.031 0 0 1 0 8.063 4.03 4.03 0 0 1-4.023-4.031"></path></g><defs><linearGradient id="steam-logo_svg__b" x1="2114.99" x2="2114.99" y1="0.83" y2="4234.68" gradientUnits="userSpaceOnUse"><stop stop-color="#111D2E"></stop><stop offset="0.212" stop-color="#051839"></stop><stop offset="0.407" stop-color="#0A1B48"></stop><stop offset="0.581" stop-color="#132E62"></stop><stop offset="0.738" stop-color="#144B7E"></stop><stop offset="0.873" stop-color="#136497"></stop><stop offset="1" stop-color="#1387B8"></stop></linearGradient><clipPath id="steam-logo_svg__a"><path fill="#fff" d="M0 .5h43v43H0z"></path></clipPath></defs></svg>