<svg xmlns="http://www.w3.org/2000/svg" width="24" height="25" fill="none" data-sentry-element="SteamIcon" data-sentry-source-file="index.tsx"><g clip-path="url(#steam__icon_svg__a)"><mask id="steam__icon_svg__b" fill="#fff"><path d="M11.98.5C5.663.5.49 5.357 0 11.528l6.443 2.657a3.4 3.4 0 0 1 2.104-.585l2.866-4.142v-.059c0-2.492 2.033-4.521 4.533-4.521s4.533 2.029 4.533 4.521a4.533 4.533 0 0 1-4.636 4.521l-4.087 2.908q.004.08.004.16a3.402 3.402 0 0 1-6.738.67l-4.609-1.9A12.02 12.02 0 0 0 11.98 24.48C18.62 24.48 24 19.11 24 12.49S18.619.5 11.98.5M7.532 18.693l-1.476-.609c.26.544.714.998 1.315 1.248 1.3.54 2.797-.074 3.339-1.371a2.53 2.53 0 0 0 .004-1.95 2.553 2.553 0 0 0-3.262-1.41l1.526.63a1.873 1.873 0 0 1 1.012 2.452 1.88 1.88 0 0 1-2.458 1.01m11.433-9.294a3.021 3.021 0 0 0-6.041 0 3.02 3.02 0 0 0 6.041 0m-5.284-.005a2.266 2.266 0 0 1 2.268-2.262 2.266 2.266 0 0 1 2.27 2.262 2.266 2.266 0 0 1-2.27 2.263 2.266 2.266 0 0 1-2.268-2.263"></path></mask><path fill="#fff" d="M11.98.5C5.663.5.49 5.357 0 11.528l6.443 2.657a3.4 3.4 0 0 1 2.104-.585l2.866-4.142v-.059c0-2.492 2.033-4.521 4.533-4.521s4.533 2.029 4.533 4.521a4.533 4.533 0 0 1-4.636 4.521l-4.087 2.908q.004.08.004.16a3.402 3.402 0 0 1-6.738.67l-4.609-1.9A12.02 12.02 0 0 0 11.98 24.48C18.62 24.48 24 19.11 24 12.49S18.619.5 11.98.5M7.532 18.693l-1.476-.609c.26.544.714.998 1.315 1.248 1.3.54 2.797-.074 3.339-1.371a2.53 2.53 0 0 0 .004-1.95 2.553 2.553 0 0 0-3.262-1.41l1.526.63a1.873 1.873 0 0 1 1.012 2.452 1.88 1.88 0 0 1-2.458 1.01m11.433-9.294a3.021 3.021 0 0 0-6.041 0 3.02 3.02 0 0 0 6.041 0m-5.284-.005a2.266 2.266 0 0 1 2.268-2.262 2.266 2.266 0 0 1 2.27 2.262 2.266 2.266 0 0 1-2.27 2.263 2.266 2.266 0 0 1-2.268-2.263"></path><path fill="#C8FF00" d="m0 11.528-9.622-.766-.558 7.009 6.5 2.68zm6.443 2.657-3.68 8.923 4.824 1.99 4.306-2.947zm1.915-.59-.012 9.653h.012zm.19.005-.532 9.638 5.396.297 3.074-4.444zm2.865-4.142 7.938 5.49 1.714-2.478V9.457zm4.43 4.462.233-9.65-3.211-.077-2.617 1.862zm-4.087 2.908L6.161 8.963l-4.303 3.06.257 5.274zm-6.734.83 9.464-1.898L13.47 10.7l-4.77-1.967zm-4.609-1.9 3.68-8.924L-14.3-.752l5.428 19.143zm7.12 2.935 3.706-8.913-.014-.006-.014-.005zm-1.476-.609L9.735 9.16l-23.29-9.6 10.912 22.705zm1.315 1.248 3.706-8.912-.003-.002zm3.339-1.371-8.898-3.74-.005.01-.004.01zm.004-1.95-8.923 3.681.004.01.005.011zm-1.379-1.38 3.708-8.913-.007-.003-.007-.003zm-1.883-.029-3.4-9.033-22.908 8.625 22.629 9.331zm1.526.63 3.706-8.913-.013-.006-.013-.005zm1.012 2.451L1.086 13.96l-.003.007zm3.69-8.289 6.812 6.84 2.841-2.83v-4.01zm0 0-6.81-6.838-2.842 2.829v4.01zM11.98-9.152C.607-9.152-8.733-.403-9.62 10.762l19.243 1.532c.094-1.177 1.1-2.142 2.357-2.142zM-3.68 20.45l6.443 2.657 7.36-17.846L3.68 2.605zm15.573 1.7a6.27 6.27 0 0 1-3.547 1.097L8.37 3.943C5.744 3.94 3.17 4.729.993 6.219zm-3.535 1.097q-.17 0-.342-.01L9.078 3.963q-.36-.02-.72-.02zm8.128-4.157 2.865-4.143L3.474 3.967.61 8.11zm4.58-9.634V9.4H1.76v.059zm0-.058a5.12 5.12 0 0 1-5.12 5.131V-4.774C8.138-4.774 1.76 1.553 1.76 9.399zm-5.12 5.131a5.12 5.12 0 0 1-5.12-5.13h19.305c0-7.847-6.377-14.174-14.185-14.174zm-5.12-5.13a5.12 5.12 0 0 1 5.12-5.13v19.304c7.81 0 14.185-6.33 14.185-14.175zm5.12-5.13h.143-.013l-.466 19.3c.012 0 .164.004.336.004zm-5.698 1.785L6.16 8.963l11.19 15.73 4.087-2.908zM2.115 17.297a6 6 0 0 1-.007-.309h19.305c0-.252-.008-.47-.016-.63zm-.007-.309a6.25 6.25 0 0 1 6.25-6.257v19.304c7.185 0 13.055-5.822 13.055-13.047zm6.25-6.257a6.25 6.25 0 0 1 6.128 5.029l-18.928 3.796c1.2 5.987 6.478 10.48 12.8 10.48zm.344-1.997-4.609-1.9-7.36 17.847 4.609 1.9zm-17.575 9.657c2.576 9.084 10.929 15.741 20.852 15.741V14.827a2.37 2.37 0 0 1-2.28-1.703zM11.98 34.132c11.947 0 21.673-9.667 21.673-21.642H14.348a2.353 2.353 0 0 1-2.369 2.337zM33.652 12.49c0-11.976-9.726-21.642-21.673-21.642v19.304a2.353 2.353 0 0 1 2.369 2.338zm-22.44-2.721L9.735 9.16 2.378 27.008l1.477.608zM-2.643 22.265a12.2 12.2 0 0 0 6.312 5.98l7.406-17.827a7.12 7.12 0 0 1 3.681 3.485zm6.309 5.98c6.2 2.578 13.352-.338 15.952-6.565L1.804 14.242a7.095 7.095 0 0 1 9.274-3.822zm15.943-6.543a12.18 12.18 0 0 0 .02-9.392L1.802 19.713a7.13 7.13 0 0 1 .012-5.493zm.03-9.37a12.19 12.19 0 0 0-6.595-6.614L5.629 23.542a7.12 7.12 0 0 1-3.837-3.85zm-6.61-6.62a12.2 12.2 0 0 0-8.977-.143l6.803 18.066a7.1 7.1 0 0 1-5.212-.087zM3.775 23.525l1.525.63 7.36-17.847-1.526-.63zm1.5.619A7.78 7.78 0 0 1 1.085 13.96l17.81 7.446c2.467-5.899-.342-12.647-6.211-15.087zM1.082 13.967A7.77 7.77 0 0 1 11.239 9.78L3.827 27.605c5.86 2.436 12.615-.317 15.072-6.206zm27.536-4.568c0-7.012-5.698-12.665-12.673-12.665v19.304A6.63 6.63 0 0 1 9.314 9.4zM15.946-3.266c-6.974 0-12.673 5.651-12.673 12.665h19.304a6.63 6.63 0 0 1-6.63 6.64zM3.273 9.399c0 7.018 5.702 12.666 12.673 12.666V2.76a6.63 6.63 0 0 1 6.631 6.64zm12.673 12.666c6.972 0 12.673-5.65 12.673-12.666H9.314c0-3.693 2.99-6.64 6.632-6.64zm7.388-12.67c0 4.106-3.33 7.389-7.383 7.389V-2.521C9.393-2.52 4.028 2.79 4.028 9.394zm-7.383 7.389a7.386 7.386 0 0 1-7.383-7.39h19.304c0-6.608-5.365-11.915-11.921-11.915zm-7.383-7.39a7.386 7.386 0 0 1 7.382-7.389V21.31c6.557 0 11.922-5.308 11.922-11.916zm7.382-7.389a7.386 7.386 0 0 1 7.384 7.39H4.029C4.03 16 9.393 21.31 15.95 21.31zm4.543 14.228L6.87 2.556z" mask="url(#steam__icon_svg__b)"></path></g><defs><clipPath id="steam__icon_svg__a"><path fill="#fff" d="M0 .5h24v24H0z"></path></clipPath></defs></svg>