<svg width="40" height="40" viewBox="0 0 40 40" fill="none" xmlns="http://www.w3.org/2000/svg">
<path d="M0 20C0 8.9543 8.9543 0 20 0C31.0457 0 40 8.9543 40 20C40 31.0457 31.0457 40 20 40C8.9543 40 0 31.0457 0 20Z" fill="#4C6C91"/>
<path d="M21.0464 26.5635C21.0464 26.5635 21.4314 26.5215 21.6286 26.3136C21.8091 26.1231 21.8029 25.7636 21.8029 25.7636C21.8029 25.7636 21.7789 24.0849 22.5729 23.837C23.3555 23.5933 24.3603 25.4604 25.4266 26.1784C26.2321 26.7212 26.8436 26.6024 26.8436 26.6024L29.6932 26.5635C29.6932 26.5635 31.1831 26.4734 30.4768 25.3232C30.4183 25.2289 30.0646 24.472 28.3586 22.9173C26.5713 21.2898 26.8112 21.553 28.9628 18.7375C30.2733 17.0229 30.7971 15.9762 30.6333 15.5286C30.4778 15.1005 29.5137 15.2142 29.5137 15.2142L26.3062 15.2337C26.3062 15.2337 26.0683 15.2019 25.892 15.3053C25.7198 15.4067 25.6082 15.6433 25.6082 15.6433C25.6082 15.6433 25.1011 16.9697 24.4239 18.0984C22.9955 20.4786 22.4247 20.6046 22.191 20.4571C21.6474 20.112 21.783 19.0724 21.783 18.3339C21.783 16.0264 22.1399 15.0647 21.0892 14.8158C20.7407 14.7328 20.484 14.6785 19.5919 14.6693C18.4472 14.658 17.4789 14.6734 16.9301 14.9366C16.5649 15.1118 16.2832 15.503 16.4554 15.5256C16.6672 15.5532 17.1471 15.6526 17.4017 15.9926C17.7304 16.432 17.7189 17.4173 17.7189 17.4173C17.7189 17.4173 17.9078 20.1335 17.2776 20.4704C16.8456 20.7019 16.2529 20.2298 14.9789 18.0697C14.3268 16.9635 13.8343 15.7406 13.8343 15.7406C13.8343 15.7406 13.7394 15.5122 13.5693 15.3893C13.3637 15.2408 13.0768 15.1947 13.0768 15.1947L10.029 15.2142C10.029 15.2142 9.57091 15.2265 9.40292 15.4221C9.25371 15.5952 9.39145 15.9547 9.39145 15.9547C9.39145 15.9547 11.7777 21.4353 14.4802 24.1976C16.9583 26.7294 19.7713 26.5635 19.7713 26.5635H21.0464Z" fill="white"/>
</svg>
